<svg xmlns="http://www.w3.org/2000/svg" viewBox="0 0 64 64" width="64" height="64" role="img" aria-label="The Chesterfield Report heron mark">
  
  <circle cx="32" cy="32" r="31" fill="#15243b"></circle>
  <circle cx="32" cy="32" r="31" fill="none" stroke="#d8a23a" stroke-width="1.5"></circle>
  <circle cx="32" cy="32" r="26.5" fill="none" stroke="#1f6b53" stroke-width="1" opacity="0.5"></circle>

  
  <path d="M11 48 Q22 44 32 47 T53 46" fill="none" stroke="#1f6b53" stroke-width="2" stroke-linecap="round" opacity="0.9"></path>

  
  <g fill="#b5462f">
    
    <path d="M19 41&#xA;             C18.5 38.5 20.5 36.8 24 36.3&#xA;             C28 35.7 31 35.6 33.5 33.8&#xA;             C34.8 32.8 35.3 31.6 35.1 30.2&#xA;             C36.6 31.3 36.9 33 36 34.4&#xA;             C34.4 36.9 30.5 38.2 26.5 39.2&#xA;             C23.5 39.9 21 40.4 19.5 41.4&#xA;             C19.3 41.3 19.1 41.2 19 41 Z"></path>
    
    <path d="M34.6 31&#xA;             C32.6 27 33.4 22.5 35.6 19&#xA;             C37.1 16.6 37.6 13.8 36.7 11.2&#xA;             C38 12.3 38.6 14.3 38 16.3&#xA;             C37.1 19.4 35 21.6 34.8 24.6&#xA;             C34.65 26.9 35.6 28.8 36.7 30.4&#xA;             C36 30.5 35.3 30.7 34.6 31 Z"></path>
    
    <circle cx="37" cy="11" r="2.7"></circle>
  </g>

  
  <path d="M39.4 10.4 L48 9 L39.6 12.2 Z" fill="#d8a23a"></path>
  
  <path d="M35.2 9.4 C32.6 8 31 8.7 30 10.2" fill="none" stroke="#b5462f" stroke-width="1.5" stroke-linecap="round"></path>

  
  <g stroke="#b5462f" stroke-width="1.7" stroke-linecap="round">
    <line x1="24" y1="40.5" x2="22.5" y2="49"></line>
    <line x1="28.5" y1="40" x2="29.5" y2="49"></line>
  </g>
</svg>