<svg xmlns="http://www.w3.org/2000/svg" viewBox="0 0 520 364" width="520" height="364" role="img" aria-label="Map of Chesterfield County highlighting the Dale magisterial district"><title>Map of Chesterfield County highlighting the Dale magisterial district</title><defs><clipPath id="cf"><path d="M362.1,295.8 L362.2,295.4 L362.8,295.5 L368.9,297.3 L366.0,293.3 L366.7,291.2 L366.3,288.8 L367.8,288.2 L375.8,289.6 L377.2,288.6 L379.5,290.1 L380.6,291.5 L381.6,296.4 L383.0,298.6 L384.8,300.1 L387.4,299.8 L388.5,298.7 L388.7,296.3 L385.3,294.8 L385.8,293.5 L384.8,291.7 L386.3,289.0 L389.2,287.9 L393.7,289.1 L393.5,287.4 L394.3,285.3 L395.2,284.5 L398.2,285.2 L400.1,286.6 L403.6,287.7 L404.9,286.0 L405.7,282.2 L408.6,275.0 L412.2,273.4 L412.2,276.8 L415.0,280.6 L415.2,281.5 L414.5,284.0 L416.7,286.8 L417.0,287.9 L416.9,289.6 L415.6,291.5 L413.5,293.2 L407.2,296.4 L404.4,301.2 L404.9,300.7 L403.4,305.4 L403.3,323.1 L402.7,326.0 L400.9,328.6 L399.0,330.1 L393.4,330.6 L391.1,332.1 L386.7,331.3 L385.5,331.9 L384.3,334.1 L385.3,333.3 L384.5,334.9 L385.0,335.4 L385.0,334.4 L385.8,332.4 L390.3,333.6 L395.1,331.8 L395.3,333.4 L398.4,333.3 L399.9,332.5 L404.2,328.6 L405.5,326.6 L405.0,316.0 L406.2,310.0 L408.5,303.4 L411.7,299.1 L418.3,294.4 L420.6,291.3 L421.4,288.7 L422.8,279.8 L424.4,274.0 L424.3,269.7 L423.8,268.0 L424.6,261.8 L428.4,258.8 L434.7,257.0 L435.9,257.3 L437.9,259.0 L438.4,257.5 L441.9,260.5 L447.5,263.5 L452.6,263.5 L460.2,260.8 L467.9,259.5 L468.4,261.8 L469.4,262.5 L469.7,262.3 L469.0,261.8 L468.7,259.4 L473.0,258.8 L475.4,256.7 L476.0,255.2 L478.6,259.0 L480.0,257.8 L479.7,254.0 L480.2,253.1 L486.6,251.1 L489.1,251.3 L488.4,245.6 L491.9,232.2 L493.9,228.2 L506.2,213.1 L508.8,207.4 L510.0,203.2 L508.2,193.9 L507.1,191.8 L505.7,190.6 L504.2,193.2 L501.5,193.4 L501.8,194.6 L501.4,195.5 L501.7,194.6 L500.9,193.3 L499.0,193.5 L500.4,192.8 L496.7,193.3 L494.5,194.3 L496.3,195.0 L495.1,195.1 L492.9,196.5 L491.4,199.8 L492.0,211.3 L490.7,215.0 L487.3,218.6 L487.6,219.1 L484.0,220.1 L476.7,220.4 L471.6,218.9 L462.1,213.9 L461.4,214.6 L462.0,213.8 L458.7,209.6 L457.5,206.6 L456.9,199.2 L459.0,197.3 L459.9,195.2 L461.1,193.9 L460.9,193.1 L461.5,192.7 L460.9,192.2 L460.3,192.4 L461.7,192.5 L462.2,191.1 L461.8,190.7 L466.1,183.3 L466.0,183.7 L467.4,180.6 L468.1,176.0 L467.7,170.7 L467.2,170.0 L467.5,170.0 L467.3,168.9 L465.7,167.5 L462.2,166.8 L459.4,168.4 L458.5,170.3 L458.6,172.2 L459.0,172.3 L458.3,172.5 L458.7,173.6 L459.4,174.0 L459.1,175.0 L459.4,175.7 L459.6,175.3 L459.3,176.2 L459.7,176.1 L459.0,178.2 L459.6,178.3 L458.6,179.6 L459.0,180.2 L458.8,179.5 L459.2,179.3 L458.8,179.6 L459.1,180.2 L458.5,180.3 L458.5,179.8 L453.7,189.7 L452.6,191.2 L450.6,192.7 L445.3,194.9 L443.8,195.3 L441.2,194.7 L440.5,195.3 L439.7,194.6 L438.4,194.9 L438.4,194.2 L437.9,194.3 L438.0,194.8 L427.2,194.1 L420.3,196.1 L418.4,197.6 L417.2,196.5 L417.8,195.8 L417.9,194.1 L419.3,193.0 L419.4,192.0 L420.1,191.3 L420.5,189.4 L420.2,187.9 L418.9,187.4 L419.7,186.9 L417.0,183.5 L414.6,181.7 L411.7,180.6 L410.1,181.0 L408.6,182.5 L408.0,184.3 L407.9,188.2 L406.5,189.2 L406.3,190.9 L400.4,188.6 L398.0,186.2 L396.9,186.3 L398.3,185.9 L397.7,185.5 L398.1,184.9 L397.8,184.2 L398.4,181.1 L399.8,177.8 L399.8,176.2 L398.6,174.5 L393.6,171.5 L391.6,169.1 L389.2,169.1 L390.9,168.4 L389.2,168.4 L388.3,167.5 L389.6,167.1 L391.1,167.9 L390.6,165.7 L389.5,165.7 L390.6,165.3 L390.0,159.0 L388.1,151.9 L385.9,149.9 L383.5,149.3 L382.7,150.0 L385.1,150.9 L385.9,152.3 L384.6,154.9 L381.8,152.9 L382.1,152.1 L381.7,150.8 L382.3,149.8 L375.8,151.3 L376.5,152.8 L376.0,153.1 L374.9,151.4 L372.5,151.6 L370.9,151.1 L367.4,148.5 L365.6,146.0 L364.3,142.3 L364.6,142.2 L364.3,140.3 L364.6,138.3 L365.9,135.2 L369.6,128.6 L369.4,128.1 L369.9,128.0 L370.7,125.4 L359.2,115.7 L353.5,112.8 L347.5,113.2 L347.5,112.6 L340.3,108.9 L339.5,110.6 L338.1,111.0 L335.8,110.7 L335.5,109.9 L334.3,109.2 L330.8,110.8 L329.1,113.0 L328.5,112.4 L326.8,112.2 L324.4,114.3 L323.5,111.6 L322.2,112.0 L320.3,114.1 L319.1,114.1 L318.6,115.9 L317.2,117.4 L316.4,117.4 L314.6,116.0 L313.3,113.0 L311.8,113.5 L312.6,111.1 L312.4,110.2 L309.3,108.0 L308.8,108.0 L307.7,109.2 L302.5,105.6 L301.0,104.0 L298.7,100.8 L297.5,98.1 L297.0,95.8 L297.5,94.1 L295.7,92.6 L292.9,84.5 L289.6,73.9 L290.0,71.6 L287.9,69.7 L287.2,67.4 L286.3,60.1 L287.3,57.6 L286.7,57.5 L286.1,55.4 L285.7,41.8 L272.8,45.6 L267.0,32.0 L265.3,30.8 L262.1,34.3 L254.9,38.9 L246.4,41.5 L238.1,40.3 L235.4,40.8 L235.2,40.1 L232.0,39.1 L232.4,37.8 L231.6,36.5 L231.4,34.5 L230.2,33.1 L230.3,31.0 L228.6,28.7 L232.8,28.0 L233.1,18.2 L224.0,18.5 L218.1,17.9 L218.6,17.6 L214.3,16.8 L209.3,17.1 L200.1,14.8 L191.9,14.6 L188.6,13.1 L185.8,10.0 L185.1,13.1 L73.5,114.2 L73.8,121.9 L72.7,125.6 L73.0,127.6 L67.9,135.5 L67.4,137.3 L67.9,138.3 L66.7,141.3 L65.1,142.8 L65.5,143.4 L65.5,145.6 L64.6,146.8 L59.9,147.7 L58.4,148.7 L53.1,150.2 L44.9,150.3 L40.0,154.7 L38.4,154.5 L37.9,153.9 L37.2,154.3 L34.9,157.7 L33.7,157.4 L33.0,157.9 L31.5,156.6 L31.5,155.7 L30.3,155.3 L29.7,154.3 L28.3,154.5 L26.9,157.4 L25.5,158.3 L14.6,154.4 L12.5,156.0 L12.8,161.1 L14.8,167.6 L15.3,171.0 L15.2,173.3 L18.7,178.7 L18.7,179.8 L18.2,180.9 L17.1,181.4 L14.3,180.6 L13.0,186.0 L11.7,186.8 L10.1,189.1 L10.1,190.7 L11.4,195.7 L11.0,198.1 L11.5,203.0 L10.7,206.2 L11.4,208.1 L12.8,209.9 L13.7,210.0 L18.8,209.4 L23.8,210.2 L30.8,216.6 L31.0,218.2 L30.3,223.4 L32.0,227.2 L38.2,230.8 L41.6,233.7 L46.1,234.3 L50.0,233.6 L58.0,234.1 L61.5,235.5 L66.2,235.8 L68.3,237.0 L70.0,236.8 L73.8,238.5 L74.7,240.0 L74.2,241.9 L73.0,243.7 L72.9,244.5 L73.3,245.5 L74.9,246.6 L74.8,248.2 L72.8,249.6 L70.8,253.5 L68.3,253.8 L64.8,256.1 L64.9,259.7 L66.5,267.4 L74.1,272.5 L78.1,272.9 L82.9,274.8 L93.4,284.2 L96.2,287.4 L96.8,290.5 L97.1,296.6 L100.6,301.0 L103.7,302.7 L115.2,304.8 L119.3,303.0 L120.7,301.3 L120.5,297.5 L121.9,294.5 L122.7,287.6 L127.7,285.9 L133.9,288.5 L135.9,287.9 L137.6,286.0 L138.4,284.4 L136.8,280.9 L137.3,276.5 L138.7,273.9 L141.4,272.1 L144.9,272.0 L147.9,273.7 L149.5,275.8 L152.2,284.1 L156.5,290.3 L160.4,289.7 L161.9,288.3 L163.3,285.8 L164.2,280.9 L165.0,279.7 L168.0,279.2 L175.7,279.1 L176.9,280.2 L178.4,284.1 L180.7,294.7 L184.5,299.4 L186.7,304.4 L189.0,306.4 L195.7,307.9 L202.1,302.9 L205.4,301.8 L209.6,304.7 L213.5,304.9 L216.5,301.3 L218.3,300.7 L219.6,301.1 L221.0,302.6 L223.4,303.9 L226.9,307.7 L227.3,308.6 L227.3,312.4 L229.1,317.9 L236.2,322.1 L237.6,325.0 L242.1,325.4 L242.8,326.0 L244.9,328.5 L246.1,333.5 L247.8,334.7 L250.2,335.1 L251.2,334.7 L253.1,331.8 L253.6,331.6 L254.6,332.1 L255.2,333.5 L255.3,339.7 L258.5,340.1 L261.3,346.3 L262.7,346.7 L264.3,345.3 L271.1,344.4 L273.9,345.2 L279.8,345.0 L287.6,348.6 L290.0,353.8 L291.6,354.3 L296.5,353.2 L301.1,350.3 L305.6,349.6 L306.7,349.0 L307.0,348.0 L307.8,347.3 L308.8,347.0 L309.9,347.9 L311.1,348.0 L314.2,346.4 L319.3,346.0 L324.4,346.8 L330.4,345.7 L334.7,346.1 L340.0,347.8 L344.9,348.6 L354.8,347.8 L361.0,346.3 L361.9,344.8 L363.4,343.8 L363.0,343.4 L364.1,342.9 L364.5,341.8 L366.3,341.9 L369.0,340.2 L370.3,340.3 L370.6,339.6 L371.9,338.9 L372.6,339.3 L373.9,338.5 L375.0,330.8 L373.2,324.4 L375.8,310.7 L375.5,308.9 L375.1,307.9 L372.4,305.7 L371.1,307.1 L370.2,306.6 L370.3,307.9 L369.1,307.5 L369.2,308.3 L370.1,308.8 L369.3,309.2 L366.2,302.8 L362.2,297.2 L362.1,295.8Z"/></clipPath></defs><g clip-path="url(#cf)"><rect x="0" y="0" width="520" height="364" fill="#d9d2c5"/><path d="M228.9,135.7 L229.9,136.7 L232.1,137.4 L237.8,141.6 L242.7,142.3 L242.5,145.8 L243.8,149.2 L241.8,150.3 L240.3,154.8 L237.6,158.1 L235.3,164.0 L235.1,166.9 L234.2,169.2 L233.1,174.7 L232.0,177.2 L232.7,177.4 L232.8,176.3 L233.5,175.8 L234.9,176.1 L235.7,177.1 L236.7,176.8 L237.7,177.9 L240.1,177.8 L242.7,179.6 L242.8,181.4 L244.0,181.9 L244.7,179.1 L247.7,180.1 L247.8,181.2 L247.0,182.2 L247.2,183.0 L247.9,182.4 L248.4,182.7 L249.7,184.5 L250.4,187.0 L251.5,187.8 L252.1,186.4 L253.5,185.8 L257.2,186.5 L259.9,187.9 L266.1,187.1 L272.8,188.3 L275.0,187.7 L275.4,186.9 L275.3,187.9 L277.1,188.1 L280.5,191.1 L281.7,191.5 L283.8,191.2 L283.0,193.9 L282.5,199.9 L276.5,199.4 L271.1,200.5 L267.9,200.0 L261.3,200.9 L258.5,202.0 L259.8,205.3 L256.4,206.4 L252.9,209.1 L254.1,212.5 L254.9,213.1 L253.7,215.2 L256.1,216.1 L257.0,212.7 L259.8,212.6 L258.9,220.1 L256.0,221.0 L257.5,226.0 L260.8,227.0 L260.9,227.6 L261.0,232.3 L259.4,232.2 L259.5,231.0 L258.1,230.8 L258.1,240.5 L260.8,240.3 L265.3,239.0 L270.0,238.8 L277.4,244.5 L288.2,249.9 L295.1,254.8 L295.8,252.8 L295.0,245.6 L295.5,243.4 L297.8,245.0 L298.4,244.7 L299.0,245.6 L300.3,245.9 L301.6,244.4 L302.6,241.8 L302.2,240.6 L302.8,239.4 L302.4,238.8 L301.4,239.0 L299.5,242.0 L297.8,241.0 L297.8,240.0 L298.9,238.4 L299.1,236.1 L300.8,234.4 L301.8,231.7 L304.1,229.2 L304.7,227.9 L307.6,226.6 L308.0,225.6 L311.1,225.3 L312.0,220.0 L312.7,218.2 L310.3,214.1 L309.4,207.1 L306.7,198.9 L311.9,198.4 L316.7,196.2 L321.0,196.6 L326.4,194.5 L333.7,193.6 L339.7,191.4 L344.4,191.6 L345.2,131.4 L347.5,112.6 L341.1,109.2 L340.3,108.9 L339.5,110.6 L337.8,111.0 L335.8,110.7 L335.5,109.9 L334.3,109.2 L330.8,110.8 L329.1,113.0 L328.5,112.4 L326.8,112.2 L324.4,114.3 L323.5,111.6 L322.2,112.0 L320.3,114.1 L319.1,114.1 L318.6,115.9 L316.9,117.5 L315.2,116.7 L313.3,113.0 L311.8,113.5 L312.6,111.1 L312.4,110.2 L309.3,108.0 L308.8,108.0 L307.7,109.2 L308.2,109.9 L307.4,110.2 L306.7,109.0 L305.3,109.8 L304.2,108.9 L302.6,109.1 L302.5,110.2 L295.4,112.7 L290.4,105.4 L287.8,107.5 L294.4,122.5 L291.9,125.1 L291.5,128.4 L291.0,129.5 L288.7,128.7 L287.9,132.0 L286.7,130.1 L285.8,129.6 L282.9,129.9 L278.5,127.6 L277.4,128.1 L273.5,126.2 L270.7,126.2 L266.4,128.7 L264.6,127.3 L257.5,123.9 L228.9,135.7Z" fill="#46785f" fill-opacity="0.75"/></g><path d="M362.1,295.8 L362.2,295.4 L362.8,295.5 L368.9,297.3 L366.0,293.3 L366.7,291.2 L366.3,288.8 L367.8,288.2 L375.8,289.6 L377.2,288.6 L379.5,290.1 L380.6,291.5 L381.6,296.4 L383.0,298.6 L384.8,300.1 L387.4,299.8 L388.5,298.7 L388.7,296.3 L385.3,294.8 L385.8,293.5 L384.8,291.7 L386.3,289.0 L389.2,287.9 L393.7,289.1 L393.5,287.4 L394.3,285.3 L395.2,284.5 L398.2,285.2 L400.1,286.6 L403.6,287.7 L404.9,286.0 L405.7,282.2 L408.6,275.0 L412.2,273.4 L412.2,276.8 L415.0,280.6 L415.2,281.5 L414.5,284.0 L416.7,286.8 L417.0,287.9 L416.9,289.6 L415.6,291.5 L413.5,293.2 L407.2,296.4 L404.4,301.2 L404.9,300.7 L403.4,305.4 L403.3,323.1 L402.7,326.0 L400.9,328.6 L399.0,330.1 L393.4,330.6 L391.1,332.1 L386.7,331.3 L385.5,331.9 L384.3,334.1 L385.3,333.3 L384.5,334.9 L385.0,335.4 L385.0,334.4 L385.8,332.4 L390.3,333.6 L395.1,331.8 L395.3,333.4 L398.4,333.3 L399.9,332.5 L404.2,328.6 L405.5,326.6 L405.0,316.0 L406.2,310.0 L408.5,303.4 L411.7,299.1 L418.3,294.4 L420.6,291.3 L421.4,288.7 L422.8,279.8 L424.4,274.0 L424.3,269.7 L423.8,268.0 L424.6,261.8 L428.4,258.8 L434.7,257.0 L435.9,257.3 L437.9,259.0 L438.4,257.5 L441.9,260.5 L447.5,263.5 L452.6,263.5 L460.2,260.8 L467.9,259.5 L468.4,261.8 L469.4,262.5 L469.7,262.3 L469.0,261.8 L468.7,259.4 L473.0,258.8 L475.4,256.7 L476.0,255.2 L478.6,259.0 L480.0,257.8 L479.7,254.0 L480.2,253.1 L486.6,251.1 L489.1,251.3 L488.4,245.6 L491.9,232.2 L493.9,228.2 L506.2,213.1 L508.8,207.4 L510.0,203.2 L508.2,193.9 L507.1,191.8 L505.7,190.6 L504.2,193.2 L501.5,193.4 L501.8,194.6 L501.4,195.5 L501.7,194.6 L500.9,193.3 L499.0,193.5 L500.4,192.8 L496.7,193.3 L494.5,194.3 L496.3,195.0 L495.1,195.1 L492.9,196.5 L491.4,199.8 L492.0,211.3 L490.7,215.0 L487.3,218.6 L487.6,219.1 L484.0,220.1 L476.7,220.4 L471.6,218.9 L462.1,213.9 L461.4,214.6 L462.0,213.8 L458.7,209.6 L457.5,206.6 L456.9,199.2 L459.0,197.3 L459.9,195.2 L461.1,193.9 L460.9,193.1 L461.5,192.7 L460.9,192.2 L460.3,192.4 L461.7,192.5 L462.2,191.1 L461.8,190.7 L466.1,183.3 L466.0,183.7 L467.4,180.6 L468.1,176.0 L467.7,170.7 L467.2,170.0 L467.5,170.0 L467.3,168.9 L465.7,167.5 L462.2,166.8 L459.4,168.4 L458.5,170.3 L458.6,172.2 L459.0,172.3 L458.3,172.5 L458.7,173.6 L459.4,174.0 L459.1,175.0 L459.4,175.7 L459.6,175.3 L459.3,176.2 L459.7,176.1 L459.0,178.2 L459.6,178.3 L458.6,179.6 L459.0,180.2 L458.8,179.5 L459.2,179.3 L458.8,179.6 L459.1,180.2 L458.5,180.3 L458.5,179.8 L453.7,189.7 L452.6,191.2 L450.6,192.7 L445.3,194.9 L443.8,195.3 L441.2,194.7 L440.5,195.3 L439.7,194.6 L438.4,194.9 L438.4,194.2 L437.9,194.3 L438.0,194.8 L427.2,194.1 L420.3,196.1 L418.4,197.6 L417.2,196.5 L417.8,195.8 L417.9,194.1 L419.3,193.0 L419.4,192.0 L420.1,191.3 L420.5,189.4 L420.2,187.9 L418.9,187.4 L419.7,186.9 L417.0,183.5 L414.6,181.7 L411.7,180.6 L410.1,181.0 L408.6,182.5 L408.0,184.3 L407.9,188.2 L406.5,189.2 L406.3,190.9 L400.4,188.6 L398.0,186.2 L396.9,186.3 L398.3,185.9 L397.7,185.5 L398.1,184.9 L397.8,184.2 L398.4,181.1 L399.8,177.8 L399.8,176.2 L398.6,174.5 L393.6,171.5 L391.6,169.1 L389.2,169.1 L390.9,168.4 L389.2,168.4 L388.3,167.5 L389.6,167.1 L391.1,167.9 L390.6,165.7 L389.5,165.7 L390.6,165.3 L390.0,159.0 L388.1,151.9 L385.9,149.9 L383.5,149.3 L382.7,150.0 L385.1,150.9 L385.9,152.3 L384.6,154.9 L381.8,152.9 L382.1,152.1 L381.7,150.8 L382.3,149.8 L375.8,151.3 L376.5,152.8 L376.0,153.1 L374.9,151.4 L372.5,151.6 L370.9,151.1 L367.4,148.5 L365.6,146.0 L364.3,142.3 L364.6,142.2 L364.3,140.3 L364.6,138.3 L365.9,135.2 L369.6,128.6 L369.4,128.1 L369.9,128.0 L370.7,125.4 L359.2,115.7 L353.5,112.8 L347.5,113.2 L347.5,112.6 L340.3,108.9 L339.5,110.6 L338.1,111.0 L335.8,110.7 L335.5,109.9 L334.3,109.2 L330.8,110.8 L329.1,113.0 L328.5,112.4 L326.8,112.2 L324.4,114.3 L323.5,111.6 L322.2,112.0 L320.3,114.1 L319.1,114.1 L318.6,115.9 L317.2,117.4 L316.4,117.4 L314.6,116.0 L313.3,113.0 L311.8,113.5 L312.6,111.1 L312.4,110.2 L309.3,108.0 L308.8,108.0 L307.7,109.2 L302.5,105.6 L301.0,104.0 L298.7,100.8 L297.5,98.1 L297.0,95.8 L297.5,94.1 L295.7,92.6 L292.9,84.5 L289.6,73.9 L290.0,71.6 L287.9,69.7 L287.2,67.4 L286.3,60.1 L287.3,57.6 L286.7,57.5 L286.1,55.4 L285.7,41.8 L272.8,45.6 L267.0,32.0 L265.3,30.8 L262.1,34.3 L254.9,38.9 L246.4,41.5 L238.1,40.3 L235.4,40.8 L235.2,40.1 L232.0,39.1 L232.4,37.8 L231.6,36.5 L231.4,34.5 L230.2,33.1 L230.3,31.0 L228.6,28.7 L232.8,28.0 L233.1,18.2 L224.0,18.5 L218.1,17.9 L218.6,17.6 L214.3,16.8 L209.3,17.1 L200.1,14.8 L191.9,14.6 L188.6,13.1 L185.8,10.0 L185.1,13.1 L73.5,114.2 L73.8,121.9 L72.7,125.6 L73.0,127.6 L67.9,135.5 L67.4,137.3 L67.9,138.3 L66.7,141.3 L65.1,142.8 L65.5,143.4 L65.5,145.6 L64.6,146.8 L59.9,147.7 L58.4,148.7 L53.1,150.2 L44.9,150.3 L40.0,154.7 L38.4,154.5 L37.9,153.9 L37.2,154.3 L34.9,157.7 L33.7,157.4 L33.0,157.9 L31.5,156.6 L31.5,155.7 L30.3,155.3 L29.7,154.3 L28.3,154.5 L26.9,157.4 L25.5,158.3 L14.6,154.4 L12.5,156.0 L12.8,161.1 L14.8,167.6 L15.3,171.0 L15.2,173.3 L18.7,178.7 L18.7,179.8 L18.2,180.9 L17.1,181.4 L14.3,180.6 L13.0,186.0 L11.7,186.8 L10.1,189.1 L10.1,190.7 L11.4,195.7 L11.0,198.1 L11.5,203.0 L10.7,206.2 L11.4,208.1 L12.8,209.9 L13.7,210.0 L18.8,209.4 L23.8,210.2 L30.8,216.6 L31.0,218.2 L30.3,223.4 L32.0,227.2 L38.2,230.8 L41.6,233.7 L46.1,234.3 L50.0,233.6 L58.0,234.1 L61.5,235.5 L66.2,235.8 L68.3,237.0 L70.0,236.8 L73.8,238.5 L74.7,240.0 L74.2,241.9 L73.0,243.7 L72.9,244.5 L73.3,245.5 L74.9,246.6 L74.8,248.2 L72.8,249.6 L70.8,253.5 L68.3,253.8 L64.8,256.1 L64.9,259.7 L66.5,267.4 L74.1,272.5 L78.1,272.9 L82.9,274.8 L93.4,284.2 L96.2,287.4 L96.8,290.5 L97.1,296.6 L100.6,301.0 L103.7,302.7 L115.2,304.8 L119.3,303.0 L120.7,301.3 L120.5,297.5 L121.9,294.5 L122.7,287.6 L127.7,285.9 L133.9,288.5 L135.9,287.9 L137.6,286.0 L138.4,284.4 L136.8,280.9 L137.3,276.5 L138.7,273.9 L141.4,272.1 L144.9,272.0 L147.9,273.7 L149.5,275.8 L152.2,284.1 L156.5,290.3 L160.4,289.7 L161.9,288.3 L163.3,285.8 L164.2,280.9 L165.0,279.7 L168.0,279.2 L175.7,279.1 L176.9,280.2 L178.4,284.1 L180.7,294.7 L184.5,299.4 L186.7,304.4 L189.0,306.4 L195.7,307.9 L202.1,302.9 L205.4,301.8 L209.6,304.7 L213.5,304.9 L216.5,301.3 L218.3,300.7 L219.6,301.1 L221.0,302.6 L223.4,303.9 L226.9,307.7 L227.3,308.6 L227.3,312.4 L229.1,317.9 L236.2,322.1 L237.6,325.0 L242.1,325.4 L242.8,326.0 L244.9,328.5 L246.1,333.5 L247.8,334.7 L250.2,335.1 L251.2,334.7 L253.1,331.8 L253.6,331.6 L254.6,332.1 L255.2,333.5 L255.3,339.7 L258.5,340.1 L261.3,346.3 L262.7,346.7 L264.3,345.3 L271.1,344.4 L273.9,345.2 L279.8,345.0 L287.6,348.6 L290.0,353.8 L291.6,354.3 L296.5,353.2 L301.1,350.3 L305.6,349.6 L306.7,349.0 L307.0,348.0 L307.8,347.3 L308.8,347.0 L309.9,347.9 L311.1,348.0 L314.2,346.4 L319.3,346.0 L324.4,346.8 L330.4,345.7 L334.7,346.1 L340.0,347.8 L344.9,348.6 L354.8,347.8 L361.0,346.3 L361.9,344.8 L363.4,343.8 L363.0,343.4 L364.1,342.9 L364.5,341.8 L366.3,341.9 L369.0,340.2 L370.3,340.3 L370.6,339.6 L371.9,338.9 L372.6,339.3 L373.9,338.5 L375.0,330.8 L373.2,324.4 L375.8,310.7 L375.5,308.9 L375.1,307.9 L372.4,305.7 L371.1,307.1 L370.2,306.6 L370.3,307.9 L369.1,307.5 L369.2,308.3 L370.1,308.8 L369.3,309.2 L366.2,302.8 L362.2,297.2 L362.1,295.8Z" fill="none" stroke="#3a342c" stroke-width="1.5" stroke-linejoin="round"/></svg>