<svg xmlns="http://www.w3.org/2000/svg" viewBox="0 0 520 364" width="520" height="364" role="img" aria-label="Map of Chesterfield County split between congressional districts VA-01 and VA-04"><title>Map of Chesterfield County split between congressional districts VA-01 and VA-04</title><defs><clipPath id="cf"><path d="M362.1,295.8 L362.2,295.4 L362.8,295.5 L368.9,297.3 L366.0,293.3 L366.7,291.2 L366.3,288.8 L367.8,288.2 L375.8,289.6 L377.2,288.6 L379.5,290.1 L380.6,291.5 L381.6,296.4 L383.0,298.6 L384.8,300.1 L387.4,299.8 L388.5,298.7 L388.7,296.3 L385.3,294.8 L385.8,293.5 L384.8,291.7 L386.3,289.0 L389.2,287.9 L393.7,289.1 L393.5,287.4 L394.3,285.3 L395.2,284.5 L398.2,285.2 L400.1,286.6 L403.6,287.7 L404.9,286.0 L405.7,282.2 L408.6,275.0 L412.2,273.4 L412.2,276.8 L415.0,280.6 L415.2,281.5 L414.5,284.0 L416.7,286.8 L417.0,287.9 L416.9,289.6 L415.6,291.5 L413.5,293.2 L407.2,296.4 L404.4,301.2 L404.9,300.7 L403.4,305.4 L403.3,323.1 L402.7,326.0 L400.9,328.6 L399.0,330.1 L393.4,330.6 L391.1,332.1 L386.7,331.3 L385.5,331.9 L384.3,334.1 L385.3,333.3 L384.5,334.9 L385.0,335.4 L385.0,334.4 L385.8,332.4 L390.3,333.6 L395.1,331.8 L395.3,333.4 L398.4,333.3 L399.9,332.5 L404.2,328.6 L405.5,326.6 L405.0,316.0 L406.2,310.0 L408.5,303.4 L411.7,299.1 L418.3,294.4 L420.6,291.3 L421.4,288.7 L422.8,279.8 L424.4,274.0 L424.3,269.7 L423.8,268.0 L424.6,261.8 L428.4,258.8 L434.7,257.0 L435.9,257.3 L437.9,259.0 L438.4,257.5 L441.9,260.5 L447.5,263.5 L452.6,263.5 L460.2,260.8 L467.9,259.5 L468.4,261.8 L469.4,262.5 L469.7,262.3 L469.0,261.8 L468.7,259.4 L473.0,258.8 L475.4,256.7 L476.0,255.2 L478.6,259.0 L480.0,257.8 L479.7,254.0 L480.2,253.1 L486.6,251.1 L489.1,251.3 L488.4,245.6 L491.9,232.2 L493.9,228.2 L506.2,213.1 L508.8,207.4 L510.0,203.2 L508.2,193.9 L507.1,191.8 L505.7,190.6 L504.2,193.2 L501.5,193.4 L501.8,194.6 L501.4,195.5 L501.7,194.6 L500.9,193.3 L499.0,193.5 L500.4,192.8 L496.7,193.3 L494.5,194.3 L496.3,195.0 L495.1,195.1 L492.9,196.5 L491.4,199.8 L492.0,211.3 L490.7,215.0 L487.3,218.6 L487.6,219.1 L484.0,220.1 L476.7,220.4 L471.6,218.9 L462.1,213.9 L461.4,214.6 L462.0,213.8 L458.7,209.6 L457.5,206.6 L456.9,199.2 L459.0,197.3 L459.9,195.2 L461.1,193.9 L460.9,193.1 L461.5,192.7 L460.9,192.2 L460.3,192.4 L461.7,192.5 L462.2,191.1 L461.8,190.7 L466.1,183.3 L466.0,183.7 L467.4,180.6 L468.1,176.0 L467.7,170.7 L467.2,170.0 L467.5,170.0 L467.3,168.9 L465.7,167.5 L462.2,166.8 L459.4,168.4 L458.5,170.3 L458.6,172.2 L459.0,172.3 L458.3,172.5 L458.7,173.6 L459.4,174.0 L459.1,175.0 L459.4,175.7 L459.6,175.3 L459.3,176.2 L459.7,176.1 L459.0,178.2 L459.6,178.3 L458.6,179.6 L459.0,180.2 L458.8,179.5 L459.2,179.3 L458.8,179.6 L459.1,180.2 L458.5,180.3 L458.5,179.8 L453.7,189.7 L452.6,191.2 L450.6,192.7 L445.3,194.9 L443.8,195.3 L441.2,194.7 L440.5,195.3 L439.7,194.6 L438.4,194.9 L438.4,194.2 L437.9,194.3 L438.0,194.8 L427.2,194.1 L420.3,196.1 L418.4,197.6 L417.2,196.5 L417.8,195.8 L417.9,194.1 L419.3,193.0 L419.4,192.0 L420.1,191.3 L420.5,189.4 L420.2,187.9 L418.9,187.4 L419.7,186.9 L417.0,183.5 L414.6,181.7 L411.7,180.6 L410.1,181.0 L408.6,182.5 L408.0,184.3 L407.9,188.2 L406.5,189.2 L406.3,190.9 L400.4,188.6 L398.0,186.2 L396.9,186.3 L398.3,185.9 L397.7,185.5 L398.1,184.9 L397.8,184.2 L398.4,181.1 L399.8,177.8 L399.8,176.2 L398.6,174.5 L393.6,171.5 L391.6,169.1 L389.2,169.1 L390.9,168.4 L389.2,168.4 L388.3,167.5 L389.6,167.1 L391.1,167.9 L390.6,165.7 L389.5,165.7 L390.6,165.3 L390.0,159.0 L388.1,151.9 L385.9,149.9 L383.5,149.3 L382.7,150.0 L385.1,150.9 L385.9,152.3 L384.6,154.9 L381.8,152.9 L382.1,152.1 L381.7,150.8 L382.3,149.8 L375.8,151.3 L376.5,152.8 L376.0,153.1 L374.9,151.4 L372.5,151.6 L370.9,151.1 L367.4,148.5 L365.6,146.0 L364.3,142.3 L364.6,142.2 L364.3,140.3 L364.6,138.3 L365.9,135.2 L369.6,128.6 L369.4,128.1 L369.9,128.0 L370.7,125.4 L359.2,115.7 L353.5,112.8 L347.5,113.2 L347.5,112.6 L340.3,108.9 L339.5,110.6 L338.1,111.0 L335.8,110.7 L335.5,109.9 L334.3,109.2 L330.8,110.8 L329.1,113.0 L328.5,112.4 L326.8,112.2 L324.4,114.3 L323.5,111.6 L322.2,112.0 L320.3,114.1 L319.1,114.1 L318.6,115.9 L317.2,117.4 L316.4,117.4 L314.6,116.0 L313.3,113.0 L311.8,113.5 L312.6,111.1 L312.4,110.2 L309.3,108.0 L308.8,108.0 L307.7,109.2 L302.5,105.6 L301.0,104.0 L298.7,100.8 L297.5,98.1 L297.0,95.8 L297.5,94.1 L295.7,92.6 L292.9,84.5 L289.6,73.9 L290.0,71.6 L287.9,69.7 L287.2,67.4 L286.3,60.1 L287.3,57.6 L286.7,57.5 L286.1,55.4 L285.7,41.8 L272.8,45.6 L267.0,32.0 L265.3,30.8 L262.1,34.3 L254.9,38.9 L246.4,41.5 L238.1,40.3 L235.4,40.8 L235.2,40.1 L232.0,39.1 L232.4,37.8 L231.6,36.5 L231.4,34.5 L230.2,33.1 L230.3,31.0 L228.6,28.7 L232.8,28.0 L233.1,18.2 L224.0,18.5 L218.1,17.9 L218.6,17.6 L214.3,16.8 L209.3,17.1 L200.1,14.8 L191.9,14.6 L188.6,13.1 L185.8,10.0 L185.1,13.1 L73.5,114.2 L73.8,121.9 L72.7,125.6 L73.0,127.6 L67.9,135.5 L67.4,137.3 L67.9,138.3 L66.7,141.3 L65.1,142.8 L65.5,143.4 L65.5,145.6 L64.6,146.8 L59.9,147.7 L58.4,148.7 L53.1,150.2 L44.9,150.3 L40.0,154.7 L38.4,154.5 L37.9,153.9 L37.2,154.3 L34.9,157.7 L33.7,157.4 L33.0,157.9 L31.5,156.6 L31.5,155.7 L30.3,155.3 L29.7,154.3 L28.3,154.5 L26.9,157.4 L25.5,158.3 L14.6,154.4 L12.5,156.0 L12.8,161.1 L14.8,167.6 L15.3,171.0 L15.2,173.3 L18.7,178.7 L18.7,179.8 L18.2,180.9 L17.1,181.4 L14.3,180.6 L13.0,186.0 L11.7,186.8 L10.1,189.1 L10.1,190.7 L11.4,195.7 L11.0,198.1 L11.5,203.0 L10.7,206.2 L11.4,208.1 L12.8,209.9 L13.7,210.0 L18.8,209.4 L23.8,210.2 L30.8,216.6 L31.0,218.2 L30.3,223.4 L32.0,227.2 L38.2,230.8 L41.6,233.7 L46.1,234.3 L50.0,233.6 L58.0,234.1 L61.5,235.5 L66.2,235.8 L68.3,237.0 L70.0,236.8 L73.8,238.5 L74.7,240.0 L74.2,241.9 L73.0,243.7 L72.9,244.5 L73.3,245.5 L74.9,246.6 L74.8,248.2 L72.8,249.6 L70.8,253.5 L68.3,253.8 L64.8,256.1 L64.9,259.7 L66.5,267.4 L74.1,272.5 L78.1,272.9 L82.9,274.8 L93.4,284.2 L96.2,287.4 L96.8,290.5 L97.1,296.6 L100.6,301.0 L103.7,302.7 L115.2,304.8 L119.3,303.0 L120.7,301.3 L120.5,297.5 L121.9,294.5 L122.7,287.6 L127.7,285.9 L133.9,288.5 L135.9,287.9 L137.6,286.0 L138.4,284.4 L136.8,280.9 L137.3,276.5 L138.7,273.9 L141.4,272.1 L144.9,272.0 L147.9,273.7 L149.5,275.8 L152.2,284.1 L156.5,290.3 L160.4,289.7 L161.9,288.3 L163.3,285.8 L164.2,280.9 L165.0,279.7 L168.0,279.2 L175.7,279.1 L176.9,280.2 L178.4,284.1 L180.7,294.7 L184.5,299.4 L186.7,304.4 L189.0,306.4 L195.7,307.9 L202.1,302.9 L205.4,301.8 L209.6,304.7 L213.5,304.9 L216.5,301.3 L218.3,300.7 L219.6,301.1 L221.0,302.6 L223.4,303.9 L226.9,307.7 L227.3,308.6 L227.3,312.4 L229.1,317.9 L236.2,322.1 L237.6,325.0 L242.1,325.4 L242.8,326.0 L244.9,328.5 L246.1,333.5 L247.8,334.7 L250.2,335.1 L251.2,334.7 L253.1,331.8 L253.6,331.6 L254.6,332.1 L255.2,333.5 L255.3,339.7 L258.5,340.1 L261.3,346.3 L262.7,346.7 L264.3,345.3 L271.1,344.4 L273.9,345.2 L279.8,345.0 L287.6,348.6 L290.0,353.8 L291.6,354.3 L296.5,353.2 L301.1,350.3 L305.6,349.6 L306.7,349.0 L307.0,348.0 L307.8,347.3 L308.8,347.0 L309.9,347.9 L311.1,348.0 L314.2,346.4 L319.3,346.0 L324.4,346.8 L330.4,345.7 L334.7,346.1 L340.0,347.8 L344.9,348.6 L354.8,347.8 L361.0,346.3 L361.9,344.8 L363.4,343.8 L363.0,343.4 L364.1,342.9 L364.5,341.8 L366.3,341.9 L369.0,340.2 L370.3,340.3 L370.6,339.6 L371.9,338.9 L372.6,339.3 L373.9,338.5 L375.0,330.8 L373.2,324.4 L375.8,310.7 L375.5,308.9 L375.1,307.9 L372.4,305.7 L371.1,307.1 L370.2,306.6 L370.3,307.9 L369.1,307.5 L369.2,308.3 L370.1,308.8 L369.3,309.2 L366.2,302.8 L362.2,297.2 L362.1,295.8Z"/></clipPath></defs><g clip-path="url(#cf)"><path d="M-122.3,1022.4 L-85.6,1021.7 L7.1,1021.5 L111.4,1020.6 L539.7,1021.7 L552.7,1019.6 L568.0,1018.8 L581.9,1021.9 L604.2,1022.0 L621.3,1021.5 L621.6,1016.0 L624.2,1012.9 L624.1,1011.1 L625.0,1010.0 L624.9,1008.0 L622.0,1006.0 L620.3,1003.9 L618.0,1002.6 L618.2,1001.5 L620.1,1000.1 L619.6,999.5 L624.3,994.1 L626.2,996.0 L632.5,999.2 L632.4,1002.1 L636.7,1008.5 L636.3,1013.5 L637.1,1016.1 L642.2,1018.0 L645.8,1020.2 L649.1,1016.2 L655.3,1011.1 L656.8,1009.0 L661.8,1006.5 L665.5,1006.2 L666.0,1003.7 L666.9,1002.0 L671.0,997.7 L672.2,994.5 L670.4,993.7 L668.9,994.0 L665.7,996.8 L664.3,996.4 L663.5,997.4 L662.9,996.8 L662.7,995.4 L662.4,995.4 L662.0,996.5 L660.7,996.3 L660.1,998.0 L659.2,998.4 L655.2,997.8 L654.0,997.1 L651.2,997.3 L650.0,996.3 L648.1,993.3 L646.0,989.3 L642.1,985.4 L641.7,980.8 L639.3,978.4 L638.7,976.5 L634.4,976.1 L632.3,974.8 L631.5,973.3 L629.8,972.2 L630.4,969.1 L629.3,967.6 L627.3,965.8 L623.7,964.2 L623.5,962.8 L624.1,959.9 L625.7,957.8 L627.9,958.5 L632.7,963.8 L641.8,971.2 L642.1,962.5 L641.3,961.3 L641.6,958.1 L640.6,953.9 L645.0,954.5 L646.5,955.9 L647.0,955.0 L647.3,951.5 L662.7,951.0 L666.4,950.1 L666.6,948.2 L665.6,944.5 L665.7,940.0 L662.2,931.4 L660.8,925.4 L657.8,925.6 L637.3,931.7 L638.7,926.7 L640.0,924.6 L641.9,917.6 L646.7,909.7 L641.8,907.4 L640.6,901.0 L637.3,895.4 L639.4,886.4 L633.8,880.5 L631.1,876.3 L630.5,875.0 L630.6,872.9 L629.0,870.1 L628.8,868.4 L625.3,867.7 L622.8,869.1 L621.9,868.4 L624.0,866.6 L628.7,867.9 L641.5,872.9 L649.5,873.5 L647.8,871.0 L643.7,867.9 L641.6,866.9 L643.3,864.3 L642.1,861.4 L642.3,860.4 L647.9,860.8 L648.9,853.9 L648.0,852.1 L646.8,852.7 L645.8,852.5 L642.9,849.1 L639.6,848.2 L638.7,846.7 L638.5,844.6 L641.8,841.3 L643.6,842.4 L646.0,841.5 L645.7,840.5 L650.4,836.3 L652.0,834.4 L652.2,833.1 L651.1,830.4 L650.8,827.9 L653.2,818.7 L655.9,815.7 L660.9,808.0 L663.7,798.8 L666.3,793.5 L686.3,793.4 L688.9,790.4 L689.6,789.3 L689.6,788.4 L690.6,787.0 L691.9,786.4 L696.0,786.3 L692.8,778.4 L693.6,774.5 L693.4,772.9 L696.0,773.3 L700.1,775.7 L702.8,776.7 L714.2,778.5 L720.4,781.5 L725.7,782.9 L730.4,786.7 L731.2,781.7 L730.9,777.8 L731.2,774.7 L730.7,771.3 L731.1,764.3 L737.7,764.8 L740.0,764.2 L739.8,761.9 L741.4,756.8 L741.8,749.5 L745.4,736.9 L742.2,737.1 L735.0,733.7 L731.4,728.0 L724.9,735.2 L724.0,732.9 L720.9,729.5 L719.5,726.1 L719.5,724.8 L715.4,722.0 L716.9,719.0 L717.7,714.7 L720.2,710.9 L713.5,708.4 L704.2,710.9 L702.1,712.9 L699.6,714.0 L693.2,712.9 L691.0,709.4 L689.5,705.0 L689.3,702.2 L692.1,695.3 L694.0,688.0 L694.9,685.7 L694.9,683.1 L696.7,683.2 L700.7,681.1 L706.7,682.9 L715.9,683.4 L717.8,684.7 L722.1,684.1 L724.1,685.7 L726.1,682.7 L726.0,680.0 L724.0,676.3 L721.6,672.7 L718.7,669.9 L717.0,665.2 L714.1,662.7 L711.3,656.5 L711.3,654.5 L706.0,654.0 L703.3,653.0 L702.4,650.5 L700.8,648.2 L716.2,639.4 L830.5,567.4 L879.5,540.5 L928.3,515.3 L930.5,514.8 L931.2,513.7 L932.6,513.5 L934.1,514.3 L935.7,513.2 L937.7,512.8 L940.4,510.9 L940.9,509.6 L938.5,506.5 L938.0,503.9 L942.0,497.6 L943.3,497.3 L944.4,496.1 L944.1,494.9 L942.9,493.5 L944.2,489.8 L944.2,488.4 L942.9,487.8 L942.4,487.0 L944.8,485.2 L948.1,484.7 L948.6,484.2 L948.5,483.0 L951.2,482.1 L951.7,479.5 L951.4,478.2 L953.4,476.5 L951.5,473.3 L953.1,471.7 L952.4,468.4 L951.4,467.2 L951.4,466.5 L953.9,463.5 L955.2,464.5 L955.5,466.0 L956.4,466.2 L958.5,462.1 L958.4,461.4 L956.5,460.6 L955.3,459.0 L955.5,457.8 L957.1,456.2 L955.8,455.1 L954.8,452.8 L954.5,444.3 L954.9,442.7 L956.6,439.6 L958.0,438.5 L960.6,437.6 L960.6,436.8 L959.0,435.6 L958.1,434.2 L958.4,431.6 L960.5,429.1 L985.0,417.0 L984.0,382.3 L981.4,377.4 L976.5,372.3 L967.8,365.4 L962.0,362.3 L957.6,360.7 L945.4,360.4 L941.1,361.5 L934.5,364.8 L928.9,369.6 L925.4,374.6 L922.3,381.1 L922.3,383.4 L919.5,391.7 L916.5,396.2 L913.8,398.2 L910.6,399.2 L904.6,399.8 L899.8,399.3 L897.1,398.3 L891.4,394.2 L881.0,382.2 L861.1,356.1 L856.3,351.1 L853.1,349.0 L845.6,346.7 L841.7,346.4 L794.6,348.3 L792.0,327.7 L792.1,325.5 L793.9,321.4 L797.8,318.8 L801.3,315.7 L802.3,314.4 L802.5,313.3 L797.9,305.7 L795.5,300.3 L794.7,295.8 L795.9,290.4 L795.8,286.3 L796.4,284.6 L802.8,278.2 L803.7,275.6 L803.4,273.5 L799.5,269.2 L798.4,267.1 L797.1,262.1 L797.6,260.3 L800.8,254.4 L801.3,251.7 L800.2,246.6 L800.5,242.6 L799.7,239.0 L800.6,233.9 L801.6,232.2 L802.1,229.7 L801.3,226.3 L797.0,223.6 L796.7,221.2 L798.4,217.1 L802.1,210.4 L802.2,209.0 L799.4,203.3 L795.9,203.2 L793.3,203.9 L791.2,206.0 L790.1,208.5 L788.3,210.3 L784.2,211.6 L781.7,213.4 L779.8,216.1 L777.1,221.7 L775.0,223.3 L773.7,223.7 L770.8,222.3 L768.8,219.7 L769.5,217.2 L771.7,212.8 L773.7,207.1 L775.7,205.3 L780.4,202.5 L782.1,200.7 L783.1,198.7 L782.6,197.1 L776.8,194.4 L769.3,189.9 L767.2,188.3 L766.5,187.1 L766.5,185.2 L767.7,183.4 L774.8,181.8 L776.3,180.0 L778.0,169.9 L778.1,168.9 L777.4,167.8 L775.9,167.3 L774.1,168.5 L772.6,173.2 L769.2,176.9 L768.1,177.3 L767.1,177.3 L761.0,173.3 L759.6,173.1 L758.3,174.0 L756.7,176.4 L756.4,181.1 L755.1,184.6 L747.8,189.3 L746.0,188.6 L745.4,186.6 L745.0,181.6 L745.6,178.5 L747.5,176.2 L751.3,173.2 L752.1,171.5 L752.3,169.3 L751.0,165.4 L749.1,162.9 L747.4,162.4 L746.7,162.8 L743.0,166.9 L740.4,168.8 L738.7,169.2 L727.1,166.2 L725.3,164.8 L724.0,162.6 L725.2,159.5 L726.5,157.6 L726.4,156.1 L724.8,154.5 L718.1,153.3 L716.7,152.0 L715.7,152.6 L715.2,155.0 L713.7,155.3 L712.9,157.0 L711.2,157.9 L709.2,157.9 L708.7,157.0 L705.3,154.9 L703.9,154.7 L699.9,157.9 L697.1,159.1 L695.6,158.7 L694.7,157.4 L693.9,157.2 L693.6,156.8 L693.8,155.6 L693.0,155.2 L692.2,156.2 L692.0,157.5 L690.3,158.1 L689.8,158.8 L689.1,158.7 L688.1,157.5 L685.7,156.8 L683.9,155.0 L682.9,152.8 L684.9,152.3 L685.3,151.6 L683.4,151.8 L683.8,150.1 L683.2,149.5 L683.5,149.0 L682.7,147.3 L682.9,146.4 L682.0,145.8 L682.5,145.0 L681.6,144.0 L680.6,144.9 L680.2,143.7 L679.4,143.7 L680.0,145.0 L679.7,145.7 L678.9,144.4 L677.9,144.6 L677.9,143.5 L677.3,143.4 L676.8,144.5 L675.1,145.0 L675.3,146.1 L674.6,145.6 L674.3,146.1 L673.1,144.7 L673.1,143.8 L668.1,142.8 L667.2,143.5 L666.3,142.9 L666.4,141.8 L665.5,141.2 L665.0,141.6 L664.9,140.7 L664.4,141.7 L664.1,141.2 L663.3,141.4 L663.6,141.0 L663.2,140.8 L662.3,140.8 L661.5,141.5 L660.6,140.8 L660.6,142.3 L659.8,141.8 L660.1,141.4 L659.6,141.0 L659.4,141.6 L658.4,141.3 L657.6,142.6 L657.0,142.5 L657.0,143.8 L655.7,144.0 L655.1,143.0 L655.7,142.2 L654.7,142.4 L654.0,140.0 L654.5,139.2 L655.0,139.8 L655.3,137.8 L654.0,136.5 L653.3,137.1 L650.8,135.8 L650.1,136.4 L648.1,135.1 L648.0,133.6 L647.1,133.1 L644.6,133.3 L644.6,132.5 L642.7,132.5 L642.3,131.7 L641.7,132.7 L640.7,132.9 L639.5,132.3 L638.9,133.1 L637.6,132.5 L636.7,133.2 L636.4,132.6 L636.1,133.0 L634.5,133.2 L634.0,132.5 L634.6,131.7 L633.1,131.9 L632.7,131.5 L631.8,132.4 L629.1,132.6 L628.2,132.0 L627.5,132.7 L626.8,132.7 L625.9,131.3 L624.8,130.9 L624.9,129.8 L622.6,128.3 L623.0,127.6 L622.7,126.9 L623.0,125.7 L621.9,125.6 L621.5,124.7 L621.1,125.1 L620.8,124.6 L619.2,124.5 L618.8,123.6 L617.5,122.9 L617.8,121.9 L616.2,120.3 L614.3,119.6 L612.6,120.0 L612.1,119.4 L611.5,120.3 L611.1,118.7 L610.3,119.1 L609.5,118.7 L609.5,117.9 L608.5,117.1 L609.0,116.8 L608.7,116.0 L609.5,115.8 L609.8,115.0 L609.0,112.7 L609.1,111.7 L607.8,111.9 L607.0,110.5 L605.1,109.4 L605.7,109.1 L604.8,107.7 L604.6,105.3 L603.6,104.2 L603.4,103.3 L602.7,102.9 L602.5,101.7 L601.1,101.9 L600.6,102.5 L598.8,101.7 L597.6,102.6 L593.5,103.4 L593.1,104.0 L590.6,104.8 L590.1,104.5 L589.5,102.7 L589.8,101.3 L591.3,99.9 L590.7,97.0 L586.3,97.6 L584.0,96.0 L580.5,97.0 L578.0,98.8 L575.7,98.0 L575.1,96.8 L576.6,91.3 L578.1,89.7 L578.3,87.8 L577.8,87.2 L573.6,87.9 L571.0,91.6 L569.4,92.4 L568.4,92.3 L568.4,90.7 L567.6,89.2 L568.0,87.4 L567.5,86.2 L564.7,84.8 L563.1,84.7 L562.7,82.8 L563.0,82.1 L561.3,81.8 L560.6,80.0 L559.6,80.3 L558.7,79.5 L556.8,77.8 L555.8,75.5 L554.7,75.9 L554.0,75.5 L554.1,73.3 L552.8,73.3 L551.4,72.6 L551.2,70.7 L550.4,70.0 L550.8,69.4 L550.5,67.1 L549.6,66.0 L546.2,64.6 L543.6,62.3 L542.6,60.6 L541.9,60.4 L541.2,60.9 L539.3,60.1 L539.2,59.3 L540.2,58.1 L539.6,57.5 L537.9,57.2 L537.3,54.2 L536.7,53.2 L535.1,52.3 L535.0,50.5 L533.4,49.3 L533.0,48.2 L528.9,46.5 L528.4,44.4 L528.9,42.7 L528.6,41.0 L526.5,39.8 L523.7,39.8 L522.0,36.9 L520.7,36.5 L520.0,34.3 L519.2,34.1 L517.1,35.2 L514.9,34.7 L512.7,36.0 L512.4,35.3 L511.2,35.1 L510.5,34.4 L508.1,34.6 L507.3,33.4 L505.9,33.0 L504.5,31.5 L502.5,31.1 L501.7,29.2 L498.1,26.9 L497.7,25.0 L496.4,24.2 L494.8,24.2 L492.9,22.0 L489.7,22.4 L485.1,21.0 L484.1,19.8 L482.5,19.8 L480.2,18.2 L478.8,18.6 L476.6,17.8 L475.1,16.4 L473.6,13.9 L472.3,13.1 L470.5,13.0 L466.3,14.2 L464.2,14.2 L461.6,13.1 L457.5,9.1 L455.4,9.4 L452.8,6.5 L449.2,6.2 L445.3,4.0 L444.6,2.3 L441.1,0.3 L437.7,-0.8 L436.0,-3.1 L432.2,-4.5 L430.9,-4.1 L426.4,-5.9 L425.8,-6.8 L424.2,-7.0 L422.8,-8.5 L420.5,-8.8 L419.9,-10.7 L418.5,-11.7 L418.0,-12.7 L417.2,-12.5 L416.6,-13.0 L416.6,-14.5 L413.5,-16.5 L411.8,-16.4 L408.6,-19.0 L401.5,-20.3 L397.1,-23.9 L394.2,-23.8 L393.3,-25.9 L391.4,-27.7 L390.0,-27.7 L387.3,-31.8 L384.3,-30.8 L383.2,-32.1 L383.0,-33.2 L383.5,-35.6 L380.3,-40.3 L382.5,-44.4 L382.2,-45.3 L383.4,-48.0 L382.9,-51.5 L381.7,-52.9 L379.8,-53.0 L378.6,-54.0 L378.5,-54.7 L374.6,-56.8 L372.8,-58.6 L371.9,-60.4 L371.9,-61.2 L370.8,-62.0 L371.4,-63.6 L370.3,-67.1 L368.0,-65.7 L367.6,-68.5 L365.8,-70.1 L362.8,-70.7 L359.6,-70.0 L352.0,-65.6 L348.5,-62.5 L346.2,-61.6 L345.7,-65.7 L342.4,-63.7 L340.2,-63.4 L339.9,-65.5 L340.4,-65.7 L340.8,-67.5 L338.8,-67.6 L334.6,-72.9 L330.3,-71.6 L328.0,-69.9 L327.5,-70.3 L326.3,-71.5 L326.4,-72.2 L324.3,-74.9 L323.6,-76.8 L322.9,-77.0 L323.1,-77.8 L321.3,-78.2 L321.5,-79.0 L319.8,-80.5 L318.7,-82.7 L316.4,-84.7 L313.4,-81.0 L312.0,-77.8 L309.0,-78.8 L310.0,-83.7 L305.0,-84.4 L305.6,-90.4 L304.5,-90.8 L302.6,-73.2 L301.2,-73.9 L300.2,-73.5 L300.5,-73.2 L299.7,-70.9 L298.6,-69.3 L289.7,-71.5 L283.5,-74.6 L281.7,-66.7 L276.2,-58.3 L279.9,-56.1 L289.3,-45.1 L293.3,-35.5 L296.0,-30.2 L297.2,-24.8 L299.9,-21.5 L293.2,-20.4 L295.4,-16.9 L295.1,-15.6 L294.0,-14.4 L300.5,-9.6 L299.0,-7.6 L297.9,-8.4 L297.2,-7.4 L295.5,-8.0 L295.3,-7.5 L282.8,-18.3 L282.3,-12.9 L283.1,-8.4 L282.4,-8.0 L281.4,-10.0 L278.7,-7.3 L277.9,-8.8 L274.0,-7.4 L273.7,-7.2 L275.7,-6.2 L271.5,-1.6 L270.9,1.5 L275.0,3.3 L275.7,2.0 L277.6,1.2 L279.1,1.5 L279.8,5.4 L280.2,5.6 L287.9,5.8 L284.9,14.8 L279.3,14.7 L275.7,13.8 L272.0,13.5 L260.6,18.4 L250.1,15.4 L246.5,14.9 L241.3,15.5 L235.9,18.0 L233.1,18.2 L232.8,28.0 L228.6,28.7 L230.3,31.0 L230.2,33.1 L231.4,34.5 L231.6,36.5 L232.4,37.8 L232.0,39.1 L235.2,40.1 L235.4,40.8 L238.1,40.3 L245.6,41.6 L256.2,38.3 L262.7,33.8 L265.3,30.8 L267.0,32.0 L272.8,45.6 L285.7,41.8 L285.9,48.2 L282.4,52.1 L279.8,59.0 L277.9,61.9 L272.4,66.4 L266.0,69.4 L264.0,71.1 L260.2,78.1 L250.8,91.3 L247.7,97.3 L241.9,105.5 L238.5,107.2 L212.2,110.6 L214.9,115.3 L219.5,114.2 L220.3,115.2 L222.9,115.3 L229.2,120.8 L229.2,124.3 L228.3,124.6 L229.1,125.9 L228.9,127.5 L232.3,128.0 L232.3,128.9 L234.3,133.4 L228.9,135.7 L226.5,134.6 L225.9,137.1 L211.3,144.1 L207.6,147.9 L205.6,149.1 L207.9,152.3 L215.8,160.7 L218.3,162.4 L221.7,162.9 L236.4,161.4 L235.3,164.0 L235.1,166.8 L234.2,169.2 L233.1,174.6 L231.9,177.1 L232.7,177.4 L232.8,176.3 L233.5,175.8 L234.9,176.1 L235.7,177.1 L236.7,176.8 L237.7,177.9 L240.1,177.8 L242.7,179.6 L242.8,181.4 L243.6,181.8 L244.3,181.8 L244.1,180.7 L244.7,179.1 L247.9,180.5 L246.9,182.6 L247.3,183.3 L247.8,182.6 L248.4,182.9 L249.3,185.7 L247.1,186.2 L246.6,186.8 L245.7,186.5 L245.3,188.2 L242.7,188.0 L241.6,186.2 L240.7,185.9 L240.0,186.8 L237.7,187.5 L238.1,189.2 L235.2,190.6 L235.2,191.1 L236.8,192.2 L234.4,194.3 L234.7,197.5 L232.6,199.1 L231.8,201.1 L230.4,200.3 L229.8,197.4 L226.2,196.0 L224.7,194.4 L224.7,192.5 L223.3,191.6 L222.8,191.5 L219.2,194.9 L216.2,202.4 L217.1,204.8 L218.8,206.5 L218.9,207.7 L215.5,216.6 L214.8,222.2 L210.5,222.3 L210.3,223.3 L206.9,227.9 L206.1,230.8 L204.5,232.7 L205.5,235.1 L208.4,235.3 L209.1,234.8 L212.3,236.4 L214.1,236.0 L217.9,236.5 L220.1,236.2 L225.7,237.3 L226.2,238.3 L227.9,238.5 L228.4,240.5 L229.3,241.8 L230.7,241.9 L230.6,242.4 L231.5,243.2 L232.0,245.1 L232.9,244.3 L233.9,244.3 L235.3,246.4 L235.3,247.1 L236.7,248.0 L238.6,251.4 L239.8,251.3 L240.9,252.1 L241.6,251.3 L243.3,253.3 L244.1,252.0 L245.0,252.1 L244.9,253.2 L248.2,256.2 L248.6,255.6 L252.4,255.5 L253.5,254.2 L256.5,252.3 L258.8,252.0 L259.2,251.6 L258.9,250.0 L260.8,250.2 L261.3,249.4 L262.5,250.8 L265.6,247.8 L266.5,247.6 L266.1,252.3 L263.4,255.3 L261.9,260.3 L258.4,265.7 L258.4,269.8 L257.2,273.7 L256.6,280.9 L254.0,290.9 L256.9,299.3 L258.7,311.8 L263.4,321.4 L261.1,324.7 L257.9,325.0 L258.4,323.6 L258.0,322.7 L254.5,323.7 L252.1,325.6 L251.7,326.9 L251.5,334.3 L250.2,335.1 L248.8,335.0 L246.1,333.5 L244.9,328.5 L242.1,325.4 L237.6,325.0 L236.2,322.1 L229.1,317.9 L227.3,312.4 L227.3,308.6 L226.9,307.7 L223.4,303.9 L221.0,302.6 L219.6,301.1 L218.3,300.7 L216.5,301.3 L213.5,304.9 L209.6,304.7 L205.4,301.8 L202.1,302.9 L195.7,307.9 L189.6,306.5 L189.6,308.6 L188.6,310.9 L190.2,313.7 L190.2,314.8 L190.9,316.2 L187.4,316.6 L185.4,317.9 L184.4,320.8 L185.2,324.5 L185.1,324.9 L184.0,324.6 L182.6,325.1 L182.4,325.9 L181.1,325.6 L181.4,326.7 L180.8,327.8 L181.3,328.3 L181.6,329.7 L181.1,330.7 L180.4,330.5 L179.5,331.3 L179.0,330.5 L177.7,331.1 L177.4,330.3 L175.4,330.5 L174.5,329.7 L173.5,330.0 L173.2,329.4 L171.9,329.6 L171.3,330.9 L170.3,330.8 L170.3,334.5 L167.7,336.3 L165.8,336.1 L165.5,337.0 L164.3,335.5 L163.8,336.1 L162.3,335.6 L161.0,336.1 L161.2,337.2 L160.5,337.2 L160.0,338.7 L160.7,340.3 L159.8,340.5 L160.1,341.3 L159.4,341.9 L159.6,343.2 L161.6,343.1 L161.4,343.9 L165.6,342.2 L165.9,342.8 L165.1,343.4 L164.9,344.4 L164.6,344.2 L162.3,345.6 L162.2,346.9 L161.1,348.5 L157.7,350.0 L155.2,349.0 L153.2,349.0 L153.0,348.3 L152.6,348.8 L151.6,348.6 L150.8,349.0 L150.2,348.3 L148.6,350.6 L147.2,350.6 L146.2,352.4 L143.8,352.5 L143.4,352.9 L143.7,353.5 L141.9,353.0 L140.5,355.4 L139.5,355.5 L138.9,356.6 L137.7,355.1 L136.7,355.2 L136.2,355.6 L135.8,357.9 L134.3,357.9 L134.6,359.1 L134.3,359.8 L132.4,360.4 L132.7,361.2 L132.1,361.8 L132.0,363.0 L131.4,362.3 L131.0,363.1 L130.2,363.5 L130.6,364.2 L129.7,365.3 L130.3,365.7 L129.1,367.5 L127.9,368.6 L121.9,370.6 L113.1,378.4 L105.5,378.9 L98.9,376.0 L90.6,374.7 L89.8,375.2 L88.5,374.5 L84.9,374.0 L77.3,375.3 L75.6,376.1 L75.0,378.7 L74.1,380.2 L72.5,381.3 L72.9,384.0 L72.5,384.3 L72.3,385.7 L69.3,386.6 L67.8,387.9 L68.5,388.3 L68.5,388.9 L67.5,391.8 L67.7,393.3 L67.1,394.0 L67.0,395.1 L65.3,396.9 L63.3,397.9 L60.8,401.3 L59.2,402.4 L57.8,403.0 L56.7,402.7 L55.5,403.7 L52.5,403.7 L51.2,403.1 L50.2,401.6 L47.3,401.4 L46.6,400.6 L42.1,402.1 L39.0,401.1 L37.8,401.9 L37.5,402.9 L36.6,403.2 L36.3,405.3 L35.8,405.7 L33.5,406.4 L30.3,406.0 L28.0,406.8 L26.9,408.4 L26.5,410.4 L23.6,413.2 L21.2,414.5 L19.4,417.9 L17.9,418.7 L16.2,420.4 L13.4,421.4 L12.0,422.8 L9.2,423.2 L2.8,426.0 L1.4,426.0 L-1.7,424.5 L-7.3,426.8 L-4.2,497.7 L-0.2,569.4 L0.5,572.3 L1.0,580.7 L-0.3,581.0 L-0.7,580.7 L-1.4,581.2 L-2.9,580.5 L-5.2,581.1 L-8.1,580.3 L-10.4,583.0 L-12.3,583.2 L-13.0,583.9 L-14.4,584.2 L-16.0,583.7 L-18.5,583.9 L-20.7,582.8 L-20.8,585.8 L-22.2,585.5 L-23.5,586.8 L-24.7,585.8 L-24.9,584.4 L-26.4,585.4 L-32.8,585.2 L-33.0,584.6 L-34.4,583.7 L-35.5,581.3 L-37.0,581.4 L-38.1,580.8 L-42.7,582.8 L-43.9,582.2 L-44.2,581.2 L-45.1,580.7 L-49.2,580.2 L-49.7,578.2 L-55.8,579.2 L-59.0,582.0 L-60.7,582.2 L-62.2,579.0 L-65.8,576.2 L-67.6,572.4 L-70.2,569.4 L-71.0,566.1 L-78.0,559.8 L-79.2,556.3 L-83.3,555.1 L-83.7,553.8 L-82.6,550.5 L-82.8,547.2 L-86.4,545.2 L-88.7,547.0 L-101.5,712.5 L-103.1,729.5 L-103.1,733.7 L-107.5,790.0 L-113.2,875.1 L-116.0,930.3 L-122.3,1022.4Z" fill="#9a3322" fill-opacity="0.55"/><path d="M10.0,189.8 L11.4,195.7 L11.0,198.1 L11.5,203.0 L10.7,206.2 L11.4,208.1 L12.8,209.9 L13.7,210.0 L18.8,209.4 L23.0,209.8 L30.2,215.7 L30.8,216.6 L31.0,218.2 L30.2,222.4 L30.4,224.1 L32.5,227.6 L38.2,230.8 L41.6,233.7 L46.1,234.3 L50.0,233.6 L58.0,234.1 L61.5,235.5 L66.2,235.8 L68.3,237.0 L70.0,236.8 L73.8,238.5 L74.7,240.0 L74.2,241.9 L73.0,243.7 L72.9,244.5 L73.3,245.5 L74.9,246.6 L74.8,248.2 L72.8,249.6 L70.8,253.5 L68.3,253.8 L64.8,256.1 L64.9,259.7 L66.5,267.4 L74.1,272.5 L78.1,272.9 L82.9,274.8 L95.0,285.7 L95.9,286.8 L96.7,289.4 L97.1,296.6 L99.7,300.1 L101.7,301.7 L104.4,303.0 L115.2,304.8 L118.2,303.8 L120.7,301.3 L120.5,297.5 L121.9,294.5 L122.7,287.6 L127.7,285.9 L133.9,288.5 L135.9,287.9 L137.6,286.0 L138.4,284.4 L136.8,280.9 L136.9,277.8 L137.9,275.0 L140.5,272.5 L144.9,272.0 L147.9,273.7 L149.5,275.8 L152.2,284.1 L156.5,290.3 L160.4,289.7 L161.9,288.3 L163.3,285.8 L164.2,280.9 L165.0,279.7 L169.7,279.1 L176.3,279.4 L178.4,284.1 L180.7,294.7 L184.5,299.4 L186.7,304.4 L189.0,306.4 L195.7,307.9 L202.1,302.9 L205.4,301.8 L209.6,304.7 L213.5,304.9 L216.5,301.3 L218.3,300.7 L219.6,301.1 L221.0,302.6 L223.4,303.9 L226.9,307.7 L227.3,308.6 L227.3,312.4 L229.1,317.9 L236.2,322.1 L237.6,325.0 L242.1,325.4 L244.9,328.5 L245.6,332.7 L246.9,334.1 L248.8,335.0 L251.2,334.7 L252.0,325.8 L254.5,323.7 L258.0,322.7 L258.4,323.6 L257.9,325.0 L261.1,324.7 L263.4,321.4 L258.7,311.8 L256.9,299.3 L254.0,290.9 L256.6,280.9 L257.2,273.7 L258.4,269.8 L258.4,265.7 L261.9,260.3 L263.4,255.3 L266.1,252.3 L266.6,247.7 L265.6,247.8 L262.5,250.8 L261.3,249.4 L260.8,250.2 L258.9,250.0 L259.2,251.6 L258.8,252.0 L256.5,252.3 L253.5,254.2 L252.4,255.5 L248.6,255.6 L248.2,256.2 L244.9,253.2 L245.0,252.1 L244.1,252.0 L243.3,253.3 L241.6,251.3 L240.9,252.1 L239.8,251.3 L238.6,251.4 L236.7,248.0 L235.3,247.1 L235.3,246.4 L233.9,244.3 L232.9,244.3 L232.0,245.1 L231.5,243.2 L230.6,242.4 L230.7,241.9 L229.3,241.8 L228.4,240.5 L227.9,238.5 L226.2,238.3 L225.7,237.3 L220.1,236.2 L217.9,236.5 L214.1,236.0 L212.3,236.4 L209.1,234.8 L208.4,235.3 L205.3,235.0 L204.5,232.7 L206.1,230.8 L206.9,227.9 L210.3,223.3 L210.5,222.3 L214.8,222.2 L215.5,216.6 L218.9,207.7 L218.8,206.5 L217.1,204.8 L216.2,202.4 L219.2,194.9 L222.8,191.5 L223.3,191.6 L224.7,192.5 L224.7,194.4 L226.2,196.0 L229.8,197.4 L230.4,200.3 L231.8,201.1 L232.6,199.1 L234.7,197.5 L234.4,194.3 L236.8,192.2 L235.2,191.1 L235.2,190.6 L238.1,189.2 L237.7,187.5 L240.0,186.8 L240.7,185.9 L241.6,186.2 L242.7,188.0 L245.3,188.2 L245.6,186.6 L246.7,186.8 L247.1,186.2 L249.2,185.8 L249.3,185.3 L248.4,182.9 L247.8,182.6 L247.3,183.3 L246.9,182.6 L247.8,180.8 L247.7,180.1 L244.7,179.1 L244.0,181.9 L242.8,181.4 L242.7,179.6 L240.1,177.8 L237.7,177.9 L236.7,176.8 L235.7,177.1 L234.9,176.1 L233.5,175.8 L232.8,176.3 L232.7,177.4 L231.9,177.1 L233.1,174.6 L234.2,169.2 L235.1,166.8 L235.3,164.0 L236.4,161.4 L221.7,162.9 L218.3,162.4 L215.8,160.7 L207.9,152.3 L205.6,149.1 L207.6,147.9 L211.3,144.1 L225.9,137.1 L226.5,134.6 L228.9,135.7 L234.3,133.4 L232.3,128.9 L232.3,128.0 L228.9,127.5 L229.1,125.9 L228.3,124.6 L229.2,124.3 L229.2,120.8 L222.9,115.3 L220.3,115.2 L219.5,114.2 L214.9,115.3 L212.2,110.6 L238.5,107.2 L241.9,105.5 L247.7,97.3 L250.8,91.3 L260.2,78.1 L264.0,71.1 L266.0,69.4 L272.4,66.4 L277.9,61.9 L279.8,59.0 L282.4,52.1 L285.9,48.2 L285.7,41.8 L272.8,45.6 L267.0,32.0 L265.3,30.8 L262.7,33.8 L256.2,38.3 L245.6,41.6 L238.1,40.3 L235.4,40.8 L235.2,40.1 L232.0,39.1 L232.4,37.8 L231.6,36.5 L231.4,34.5 L230.2,33.1 L230.3,31.0 L228.6,28.7 L232.8,28.0 L233.1,18.2 L235.9,18.0 L241.3,15.5 L246.5,14.9 L250.1,15.4 L260.6,18.4 L272.0,13.5 L275.7,13.8 L279.3,14.7 L284.9,14.8 L287.9,5.8 L280.2,5.6 L279.8,5.4 L279.1,1.5 L277.6,1.2 L275.7,2.0 L275.0,3.3 L270.9,1.5 L271.5,-1.6 L275.7,-6.2 L273.7,-7.2 L274.0,-7.4 L277.9,-8.8 L278.7,-7.3 L281.4,-10.0 L282.4,-8.0 L283.1,-8.4 L282.3,-12.9 L282.8,-18.3 L295.3,-7.5 L295.5,-8.0 L297.2,-7.4 L297.9,-8.4 L299.0,-7.6 L300.5,-9.6 L294.0,-14.4 L295.1,-15.6 L295.4,-16.9 L293.2,-20.4 L299.9,-21.5 L297.2,-24.8 L296.0,-30.2 L293.3,-35.5 L289.3,-45.1 L279.9,-56.1 L276.2,-58.3 L281.7,-66.7 L283.5,-74.6 L289.7,-71.5 L298.6,-69.3 L299.7,-70.9 L300.5,-73.2 L300.2,-73.5 L301.2,-73.9 L302.6,-73.2 L304.5,-90.8 L305.6,-90.4 L305.0,-84.4 L310.0,-83.7 L309.0,-78.8 L312.0,-77.8 L313.4,-81.0 L316.4,-84.7 L318.7,-82.7 L319.8,-80.5 L321.5,-79.0 L321.3,-78.2 L323.1,-77.8 L322.9,-77.0 L323.6,-76.8 L324.3,-74.9 L326.4,-72.2 L326.3,-71.5 L327.5,-70.3 L328.0,-69.9 L330.3,-71.6 L334.6,-72.9 L338.8,-67.6 L340.8,-67.5 L340.4,-65.7 L339.9,-65.5 L340.2,-63.4 L342.4,-63.7 L345.7,-65.7 L346.2,-61.6 L348.5,-62.5 L352.0,-65.6 L359.6,-70.0 L362.8,-70.7 L365.8,-70.1 L367.6,-68.5 L368.0,-65.7 L370.3,-67.1 L371.4,-63.6 L370.8,-62.0 L371.9,-61.2 L371.9,-60.4 L372.8,-58.6 L374.6,-56.8 L378.5,-54.7 L378.6,-54.0 L379.8,-53.0 L381.7,-52.9 L382.9,-51.5 L383.4,-48.0 L382.2,-45.3 L382.5,-44.4 L380.3,-40.3 L383.5,-35.6 L383.0,-33.2 L383.2,-32.1 L384.3,-30.8 L387.3,-31.8 L390.0,-27.7 L391.4,-27.7 L393.3,-25.9 L394.2,-23.8 L397.1,-23.9 L401.5,-20.3 L408.6,-19.0 L411.8,-16.4 L413.5,-16.5 L416.6,-14.5 L416.6,-13.0 L417.2,-12.5 L418.0,-12.7 L418.5,-11.7 L419.9,-10.7 L420.5,-8.8 L422.8,-8.5 L424.2,-7.0 L425.8,-6.8 L426.4,-5.9 L430.9,-4.1 L432.2,-4.5 L436.0,-3.1 L437.7,-0.8 L441.1,0.3 L444.6,2.3 L445.3,4.0 L449.2,6.2 L452.8,6.5 L455.4,9.4 L457.5,9.1 L461.6,13.1 L464.2,14.2 L466.3,14.2 L470.5,13.0 L472.3,13.1 L473.6,13.9 L475.1,16.4 L476.6,17.8 L478.8,18.6 L480.2,18.2 L482.5,19.8 L484.1,19.8 L485.1,21.0 L489.7,22.4 L492.9,22.0 L494.8,24.2 L496.4,24.2 L497.7,25.0 L498.1,26.9 L501.7,29.2 L502.5,31.1 L504.5,31.5 L505.9,33.0 L507.3,33.4 L508.1,34.6 L510.5,34.4 L511.2,35.1 L512.4,35.3 L512.7,36.0 L514.9,34.7 L517.1,35.2 L519.2,34.1 L520.0,34.3 L520.7,36.5 L522.0,36.9 L523.7,39.8 L526.5,39.8 L528.6,41.0 L528.9,42.7 L528.4,44.4 L528.9,46.5 L533.0,48.2 L533.4,49.3 L535.0,50.5 L535.1,52.3 L536.7,53.2 L537.3,54.2 L537.9,57.2 L539.6,57.5 L540.2,58.1 L539.2,59.3 L539.3,60.1 L541.2,60.9 L541.9,60.4 L542.6,60.6 L543.6,62.3 L546.2,64.6 L549.6,66.0 L550.5,67.1 L550.8,69.4 L550.4,70.0 L551.2,70.7 L551.4,72.6 L552.8,73.3 L554.1,73.3 L554.0,75.5 L554.7,75.9 L555.8,75.5 L556.8,77.8 L558.7,79.5 L559.6,80.3 L560.6,80.0 L561.3,81.8 L563.0,82.1 L562.7,82.8 L563.1,84.7 L564.7,84.8 L567.5,86.2 L568.0,87.4 L567.6,89.2 L568.4,90.7 L568.4,92.3 L569.4,92.4 L571.0,91.6 L573.6,87.9 L577.8,87.2 L578.3,87.8 L578.1,89.7 L576.6,91.3 L575.1,96.8 L575.7,98.0 L578.0,98.8 L580.5,97.0 L584.0,96.0 L586.3,97.6 L590.7,97.0 L591.3,99.9 L589.8,101.3 L589.5,102.7 L590.1,104.5 L590.6,104.8 L593.1,104.0 L593.5,103.4 L597.6,102.6 L598.8,101.7 L600.6,102.5 L601.1,101.9 L602.5,101.7 L602.7,102.9 L603.4,103.3 L603.6,104.2 L604.6,105.3 L604.8,107.7 L605.7,109.1 L605.1,109.4 L607.0,110.5 L607.8,111.9 L609.1,111.7 L609.0,112.7 L609.8,115.0 L609.5,115.8 L608.7,116.0 L609.0,116.8 L608.5,117.1 L609.5,117.9 L609.5,118.7 L610.3,119.1 L611.1,118.7 L611.5,120.3 L612.1,119.4 L612.6,120.0 L614.3,119.6 L616.2,120.3 L617.8,121.9 L617.5,122.9 L618.8,123.6 L619.2,124.5 L620.8,124.6 L621.1,125.1 L621.5,124.7 L621.9,125.6 L623.0,125.7 L622.7,126.9 L623.0,127.6 L622.6,128.3 L624.9,129.8 L624.8,130.9 L625.9,131.3 L626.8,132.7 L627.5,132.7 L628.2,132.0 L629.1,132.6 L631.8,132.4 L632.7,131.5 L633.1,131.9 L634.6,131.7 L634.0,132.5 L634.5,133.2 L636.1,133.0 L636.4,132.6 L636.7,133.2 L637.6,132.5 L638.9,133.1 L639.5,132.3 L640.7,132.9 L641.7,132.7 L642.3,131.7 L642.7,132.5 L644.6,132.5 L644.6,133.3 L647.1,133.1 L648.0,133.6 L648.1,135.1 L650.1,136.4 L650.8,135.8 L653.3,137.1 L654.0,136.5 L655.3,137.8 L655.0,139.8 L654.5,139.2 L654.0,140.0 L654.7,142.4 L655.7,142.2 L655.1,143.0 L655.7,144.0 L657.0,143.8 L657.0,142.5 L657.6,142.6 L658.4,141.3 L659.4,141.6 L659.6,141.0 L660.1,141.4 L659.8,141.8 L660.6,142.3 L660.6,140.8 L661.5,141.5 L662.3,140.8 L663.2,140.8 L663.6,141.0 L663.3,141.4 L664.1,141.2 L664.4,141.7 L664.9,140.7 L665.0,141.6 L665.5,141.2 L666.4,141.8 L666.3,142.9 L667.2,143.5 L668.1,142.8 L673.1,143.8 L673.1,144.7 L674.3,146.1 L674.6,145.6 L675.3,146.1 L675.1,145.0 L676.8,144.5 L677.3,143.4 L677.9,143.5 L677.9,144.6 L678.9,144.4 L679.7,145.7 L680.0,145.0 L679.4,143.7 L680.2,143.7 L680.6,144.9 L681.6,144.0 L682.5,145.0 L682.0,145.8 L682.9,146.4 L682.7,147.3 L683.5,149.0 L683.2,149.5 L683.8,150.1 L683.4,151.8 L685.3,151.6 L684.9,152.3 L682.9,152.8 L683.9,155.0 L685.7,156.8 L688.1,157.5 L689.1,158.7 L689.8,158.8 L690.3,158.1 L692.0,157.5 L692.2,156.2 L693.0,155.2 L693.8,155.6 L693.6,156.8 L693.9,157.2 L694.7,157.4 L695.6,158.7 L697.1,159.1 L699.9,157.9 L703.9,154.7 L705.3,154.9 L708.7,157.0 L709.2,157.9 L711.2,157.9 L712.9,157.0 L713.7,155.3 L715.2,155.0 L715.7,152.6 L716.7,152.0 L718.1,153.3 L724.8,154.5 L726.4,156.1 L726.5,157.6 L725.2,159.5 L724.0,162.6 L725.3,164.8 L727.1,166.2 L738.7,169.2 L740.4,168.8 L743.0,166.9 L746.7,162.8 L747.4,162.4 L749.1,162.9 L751.0,165.4 L752.3,169.3 L752.1,171.5 L751.3,173.2 L747.5,176.2 L745.6,178.5 L745.0,181.6 L745.4,186.6 L746.0,188.6 L747.8,189.3 L755.1,184.6 L756.4,181.1 L756.7,176.4 L758.3,174.0 L759.6,173.1 L761.0,173.3 L767.1,177.3 L768.1,177.3 L769.2,176.9 L772.6,173.2 L774.1,168.5 L775.9,167.3 L777.4,167.8 L778.1,168.9 L778.0,169.9 L776.3,180.0 L774.8,181.8 L767.7,183.4 L766.5,185.2 L766.5,187.1 L767.2,188.3 L769.3,189.9 L776.8,194.4 L782.6,197.1 L783.1,198.7 L782.1,200.7 L780.4,202.5 L775.7,205.3 L773.7,207.1 L771.7,212.8 L769.5,217.2 L768.8,219.7 L770.8,222.3 L773.7,223.7 L775.0,223.3 L777.1,221.7 L779.8,216.1 L781.7,213.4 L784.2,211.6 L788.3,210.3 L790.1,208.5 L791.2,206.0 L793.3,203.9 L795.9,203.2 L799.4,203.3 L802.2,209.0 L802.1,210.4 L798.4,217.1 L796.7,221.2 L797.0,223.6 L801.3,226.3 L802.1,229.7 L801.6,232.2 L800.6,233.9 L799.7,239.0 L800.5,242.6 L800.2,246.6 L801.3,251.7 L800.8,254.4 L797.6,260.3 L797.1,262.1 L798.4,267.1 L799.5,269.2 L803.4,273.5 L803.7,275.6 L802.8,278.2 L796.4,284.6 L795.8,286.3 L795.9,290.4 L794.7,295.8 L795.5,300.3 L797.9,305.7 L802.5,313.3 L802.3,314.4 L801.3,315.7 L797.8,318.8 L793.9,321.4 L792.1,325.5 L792.0,327.7 L794.6,348.3 L841.7,346.4 L845.6,346.7 L853.1,349.0 L856.3,351.1 L861.1,356.1 L881.0,382.2 L891.4,394.2 L897.1,398.3 L899.8,399.3 L904.6,399.8 L909.1,399.5 L913.8,398.2 L917.8,394.7 L919.5,391.7 L922.3,383.4 L922.3,381.1 L925.4,374.6 L928.9,369.6 L934.5,364.8 L941.1,361.5 L945.4,360.4 L955.0,360.3 L960.2,361.5 L970.2,367.0 L976.5,372.3 L981.4,377.4 L983.4,380.7 L984.0,382.3 L984.2,385.2 L985.0,417.0 L985.4,416.2 L1004.5,407.1 L1012.1,402.0 L1014.0,400.3 L1016.6,396.6 L1016.6,396.0 L1017.2,395.9 L1019.5,392.7 L1021.4,392.6 L1025.0,389.5 L1028.8,390.9 L1030.2,389.9 L1030.3,388.2 L1031.7,389.1 L1032.6,388.5 L1032.7,385.8 L1035.2,384.2 L1035.0,383.5 L1033.6,382.8 L1034.9,382.2 L1035.2,380.6 L1033.4,380.3 L1033.6,378.4 L1031.0,378.0 L1031.9,376.3 L1030.9,376.0 L1029.3,370.3 L1026.1,366.7 L1024.7,364.0 L1024.2,361.4 L1024.7,358.0 L1031.1,358.7 L1031.1,358.3 L1037.4,358.3 L1037.8,355.5 L1040.8,355.9 L1041.1,354.1 L1043.5,353.6 L1045.3,350.8 L1076.0,394.3 L1077.2,394.5 L1077.1,394.1 L1079.2,393.9 L1083.3,392.1 L1083.7,392.7 L1085.0,395.1 L1084.7,397.8 L1093.1,412.3 L1092.2,413.6 L1093.1,414.6 L1091.7,416.6 L1129.0,469.5 L1133.0,472.1 L1134.9,471.9 L1135.9,473.6 L1140.2,475.7 L1144.4,475.3 L1146.2,476.4 L1148.0,475.5 L1150.0,475.3 L1151.7,474.2 L1155.3,477.9 L1156.8,478.5 L1160.6,478.2 L1162.3,477.0 L1164.0,476.7 L1165.3,476.8 L1167.9,478.4 L1168.4,477.5 L1169.4,478.2 L1169.7,477.9 L1169.4,477.3 L1171.1,477.4 L1170.4,477.0 L1170.3,476.1 L1171.0,475.9 L1171.5,476.8 L1171.8,476.1 L1172.6,476.2 L1172.4,475.5 L1173.2,474.8 L1175.1,474.6 L1175.4,473.5 L1177.1,474.5 L1177.5,474.2 L1176.6,473.4 L1177.5,472.9 L1177.6,472.2 L1175.7,472.5 L1177.1,471.4 L1176.0,471.0 L1175.9,470.2 L1178.1,470.5 L1176.4,468.3 L1177.2,466.5 L1176.8,466.1 L1176.2,467.2 L1174.5,467.5 L1173.9,466.3 L1174.7,465.9 L1174.6,464.9 L1177.0,463.8 L1177.6,462.8 L1178.4,462.9 L1179.7,464.3 L1180.3,462.0 L1182.7,463.3 L1185.5,463.8 L1185.9,465.3 L1187.7,465.2 L1187.7,462.7 L1185.8,462.5 L1185.0,461.6 L1186.1,460.3 L1187.8,460.2 L1188.5,458.5 L1189.4,458.3 L1190.3,458.6 L1194.2,462.1 L1201.1,457.4 L1214.1,463.7 L1219.1,473.5 L1240.6,467.4 L1245.1,468.4 L1253.1,467.2 L1256.3,463.3 L1259.1,456.8 L1261.6,454.6 L1265.9,452.3 L1273.8,449.3 L1273.7,454.4 L1384.4,452.9 L1382.7,197.4 L1379.8,31.2 L1363.5,-50.7 L1362.6,-50.7 L1306.6,-298.7 L1304.4,-310.1 L1304.7,-312.0 L1304.2,-312.1 L1304.3,-313.6 L1303.7,-313.2 L1301.0,-314.1 L1295.4,-318.3 L1287.8,-329.1 L1279.6,-335.5 L1266.6,-342.4 L1223.9,-368.3 L1215.1,-372.4 L1207.5,-375.3 L1193.7,-378.5 L1182.8,-381.7 L1165.3,-389.2 L1160.2,-394.1 L1155.4,-399.7 L1148.8,-404.6 L1146.3,-408.8 L1144.4,-411.0 L1142.2,-412.3 L1124.2,-435.7 L1122.6,-436.0 L1121.5,-437.1 L1118.7,-437.7 L1117.6,-438.7 L1116.4,-437.9 L1111.7,-437.8 L1103.0,-440.2 L1092.4,-444.5 L1083.6,-449.2 L1083.9,-467.2 L1082.8,-468.8 L1075.9,-475.3 L1069.7,-485.7 L1068.6,-489.6 L1068.9,-495.0 L1067.9,-496.9 L1063.6,-498.8 L1055.8,-504.3 L1052.0,-507.8 L1046.5,-509.8 L1037.2,-515.4 L1032.3,-517.8 L1031.9,-519.0 L1027.2,-524.0 L1020.8,-528.5 L1017.4,-534.8 L1017.9,-536.2 L1016.2,-545.4 L1016.5,-546.8 L1009.6,-570.0 L1013.9,-569.5 L1013.5,-570.4 L1006.5,-570.9 L1001.0,-572.1 L998.0,-572.9 L994.8,-574.9 L989.5,-574.0 L946.7,-581.9 L942.8,-581.9 L938.2,-582.7 L898.4,-586.0 L888.5,-589.1 L882.7,-589.2 L880.2,-588.5 L869.4,-590.6 L863.0,-589.5 L860.2,-590.2 L851.4,-587.7 L850.0,-587.9 L841.3,-585.0 L829.9,-584.8 L822.6,-588.0 L817.4,-588.6 L815.1,-590.0 L814.3,-591.9 L813.8,-592.3 L804.1,-592.7 L801.7,-593.4 L796.3,-596.5 L788.8,-604.5 L780.2,-610.8 L778.0,-613.5 L772.5,-618.4 L770.0,-619.2 L768.6,-620.8 L763.7,-621.9 L757.1,-622.3 L752.3,-623.4 L746.7,-627.3 L742.7,-629.4 L732.2,-650.7 L735.5,-654.9 L736.4,-658.2 L736.1,-663.0 L733.5,-670.1 L732.9,-673.7 L733.3,-674.1 L732.8,-674.5 L733.1,-675.6 L732.4,-677.5 L731.0,-679.6 L728.0,-682.3 L725.5,-686.2 L723.7,-687.5 L717.2,-695.0 L711.2,-694.9 L709.7,-694.1 L704.3,-698.5 L702.7,-697.1 L700.4,-696.2 L699.6,-696.4 L698.0,-697.9 L696.7,-697.8 L696.6,-695.7 L695.9,-694.3 L695.0,-693.4 L691.9,-692.4 L691.1,-689.9 L687.3,-690.3 L685.7,-690.1 L684.4,-689.2 L680.3,-689.1 L679.6,-688.4 L679.3,-686.7 L676.0,-685.0 L677.0,-684.1 L676.8,-681.9 L675.1,-681.9 L675.8,-681.0 L674.9,-679.2 L673.6,-679.5 L671.8,-681.5 L668.9,-681.7 L667.4,-681.0 L664.3,-603.6 L661.8,-601.9 L661.6,-600.5 L662.9,-599.0 L661.8,-597.5 L658.1,-597.4 L656.2,-596.1 L653.5,-595.8 L653.3,-594.9 L651.8,-593.1 L652.2,-589.7 L651.5,-587.1 L652.1,-586.6 L652.1,-586.0 L652.9,-586.4 L653.4,-586.0 L653.0,-585.5 L653.7,-584.9 L654.0,-583.4 L653.8,-583.0 L652.5,-583.4 L649.8,-582.7 L648.0,-579.7 L649.7,-570.1 L649.6,-568.5 L648.6,-566.2 L646.4,-563.9 L644.3,-562.8 L643.0,-562.6 L640.8,-563.6 L638.2,-566.9 L637.2,-568.9 L636.3,-580.9 L635.8,-581.6 L631.8,-583.0 L627.8,-583.0 L625.3,-581.9 L622.4,-580.1 L614.0,-572.6 L611.0,-571.4 L612.4,-555.6 L613.1,-555.5 L612.3,-555.1 L613.5,-554.6 L613.7,-555.5 L614.6,-555.4 L615.2,-554.6 L616.2,-555.4 L616.5,-554.2 L617.8,-553.4 L618.4,-554.5 L619.1,-554.6 L619.4,-553.4 L619.0,-552.7 L619.7,-551.5 L618.9,-550.5 L619.4,-548.9 L617.9,-548.1 L617.5,-547.0 L615.7,-546.5 L615.1,-545.7 L614.2,-545.5 L613.4,-546.2 L613.0,-545.5 L612.9,-543.6 L611.7,-543.4 L610.4,-542.3 L609.3,-543.3 L607.9,-542.6 L607.5,-544.1 L601.6,-544.6 L601.3,-545.0 L599.5,-545.1 L599.0,-544.7 L598.3,-545.1 L597.9,-544.4 L594.7,-542.8 L593.1,-543.6 L592.9,-544.3 L592.1,-544.9 L590.2,-544.7 L590.0,-543.8 L588.6,-542.5 L590.5,-536.7 L590.0,-534.2 L589.2,-533.7 L587.8,-530.2 L588.1,-528.7 L589.3,-526.8 L589.4,-525.0 L590.5,-523.8 L588.8,-519.7 L589.1,-517.4 L587.8,-516.1 L585.5,-516.2 L584.0,-515.4 L582.5,-515.2 L582.8,-512.6 L581.7,-509.9 L578.6,-510.4 L576.9,-509.9 L575.8,-509.1 L573.3,-505.7 L569.2,-503.0 L568.4,-501.5 L570.3,-496.4 L573.3,-494.1 L572.8,-492.1 L575.2,-488.6 L576.2,-488.5 L576.5,-486.4 L580.6,-485.6 L581.2,-484.7 L582.8,-484.4 L583.6,-483.6 L585.2,-483.5 L586.3,-482.1 L586.9,-480.2 L588.3,-479.6 L586.7,-478.1 L586.8,-476.9 L584.2,-472.4 L585.0,-471.9 L584.8,-471.4 L585.9,-470.1 L587.6,-470.6 L587.8,-468.6 L595.9,-470.0 L598.8,-468.6 L599.7,-467.3 L600.4,-467.3 L601.4,-464.7 L601.1,-463.5 L601.7,-462.0 L602.9,-461.9 L603.2,-460.5 L606.3,-456.7 L606.5,-456.0 L605.8,-454.1 L604.6,-453.8 L603.8,-451.9 L602.1,-451.3 L602.1,-450.1 L600.8,-445.7 L599.4,-443.0 L599.8,-441.5 L599.4,-440.1 L600.3,-438.7 L601.5,-438.1 L603.3,-438.2 L604.7,-437.3 L606.2,-438.1 L607.4,-436.1 L608.5,-435.4 L609.3,-437.2 L612.6,-438.7 L614.4,-437.0 L615.5,-436.5 L617.3,-436.8 L618.1,-435.9 L619.9,-435.6 L621.1,-433.9 L623.6,-433.5 L625.2,-433.9 L626.3,-435.6 L629.1,-435.5 L632.3,-436.2 L635.5,-431.8 L636.2,-428.5 L637.6,-425.4 L641.2,-424.3 L642.1,-423.4 L643.1,-419.8 L645.2,-417.4 L642.2,-414.5 L641.7,-413.2 L642.3,-411.6 L644.7,-408.7 L644.6,-405.6 L646.9,-399.9 L647.3,-397.1 L648.3,-394.8 L647.2,-387.7 L645.5,-391.2 L642.8,-391.3 L641.9,-390.7 L639.2,-391.6 L635.1,-387.9 L631.7,-386.7 L627.7,-387.0 L627.3,-386.6 L623.9,-387.3 L621.7,-391.1 L621.5,-392.3 L618.6,-394.5 L615.8,-393.9 L614.4,-394.4 L606.2,-393.3 L599.9,-394.7 L597.6,-393.8 L593.6,-394.7 L592.7,-394.6 L591.5,-393.3 L590.0,-394.7 L588.8,-395.0 L584.8,-394.5 L582.6,-393.1 L581.0,-390.2 L578.8,-389.0 L575.9,-388.3 L573.5,-388.6 L571.9,-387.9 L566.8,-382.5 L566.6,-381.2 L563.8,-379.8 L562.9,-377.9 L559.8,-374.0 L559.1,-372.4 L561.3,-370.4 L561.5,-369.6 L559.1,-367.9 L558.5,-365.3 L557.5,-364.6 L558.1,-363.0 L557.9,-361.4 L559.4,-359.7 L560.7,-355.4 L560.9,-353.1 L561.5,-352.0 L561.4,-350.4 L560.5,-349.5 L559.8,-347.6 L559.4,-344.9 L559.6,-342.4 L558.3,-340.1 L558.2,-337.5 L556.8,-337.4 L555.5,-334.7 L557.4,-332.4 L557.6,-332.9 L559.0,-332.1 L559.3,-331.3 L560.6,-331.5 L560.4,-330.8 L561.8,-330.3 L561.8,-329.6 L564.2,-328.8 L564.8,-327.5 L564.2,-325.6 L561.9,-324.2 L560.3,-324.9 L560.1,-327.2 L559.2,-327.9 L557.0,-325.4 L556.0,-325.1 L555.7,-324.5 L555.1,-324.6 L555.3,-321.7 L557.9,-321.4 L559.1,-322.5 L559.5,-321.6 L560.2,-321.4 L560.0,-320.8 L560.8,-320.9 L560.5,-318.2 L560.8,-317.7 L559.9,-316.1 L560.3,-315.7 L559.5,-315.1 L558.6,-315.6 L557.6,-314.2 L556.8,-314.6 L556.7,-313.8 L555.5,-313.0 L555.3,-313.3 L555.7,-313.9 L554.3,-315.2 L552.5,-314.5 L551.1,-315.2 L548.3,-312.8 L547.1,-312.9 L546.3,-311.7 L545.5,-312.1 L544.2,-314.6 L540.7,-315.5 L540.5,-315.1 L540.8,-313.8 L539.6,-314.6 L537.8,-312.1 L538.3,-311.7 L540.8,-312.2 L541.4,-310.6 L539.8,-310.2 L538.9,-309.2 L537.9,-309.2 L533.3,-312.3 L532.0,-314.5 L532.3,-315.8 L535.4,-318.2 L536.2,-320.1 L536.4,-321.7 L535.8,-324.6 L534.2,-324.5 L531.1,-326.9 L529.3,-327.3 L528.1,-325.6 L526.5,-326.1 L526.5,-325.0 L525.1,-322.6 L523.9,-322.1 L522.5,-323.3 L522.9,-324.7 L522.5,-327.1 L521.8,-327.5 L521.9,-328.9 L520.5,-330.7 L518.4,-332.5 L516.6,-333.4 L513.6,-333.6 L512.2,-333.0 L511.1,-330.5 L508.9,-327.7 L510.0,-326.6 L510.9,-324.7 L510.9,-323.1 L510.3,-319.6 L506.6,-309.7 L506.7,-307.1 L507.4,-306.2 L507.7,-303.6 L506.9,-301.4 L507.3,-299.8 L505.9,-298.5 L505.2,-296.1 L504.5,-295.1 L501.8,-292.3 L495.8,-287.6 L486.6,-273.3 L481.5,-267.4 L475.8,-267.7 L475.2,-267.2 L473.3,-260.2 L461.0,-246.4 L442.2,-229.9 L439.9,-225.6 L430.1,-216.4 L430.3,-213.5 L427.1,-213.2 L425.6,-214.7 L425.2,-217.7 L424.2,-219.3 L420.8,-221.2 L416.8,-221.9 L416.7,-219.4 L414.1,-218.0 L413.5,-216.8 L413.7,-215.3 L415.8,-215.0 L416.4,-214.3 L416.5,-213.1 L415.2,-212.6 L411.9,-213.2 L410.3,-212.5 L409.6,-211.0 L410.2,-207.9 L409.8,-204.9 L407.9,-201.4 L407.1,-200.7 L404.2,-200.7 L402.2,-202.1 L398.6,-201.8 L396.3,-203.2 L389.3,-201.6 L388.6,-201.9 L388.4,-203.0 L387.5,-204.0 L384.4,-203.7 L383.2,-204.5 L382.6,-207.1 L384.5,-210.4 L387.5,-210.1 L390.3,-208.8 L391.8,-208.7 L392.6,-208.8 L394.4,-211.0 L388.7,-214.1 L388.5,-215.6 L390.5,-223.8 L390.8,-227.0 L389.8,-228.5 L388.2,-228.6 L385.5,-229.9 L384.3,-229.4 L382.8,-227.1 L381.0,-227.5 L379.9,-227.1 L376.8,-223.8 L371.9,-222.7 L367.8,-224.1 L366.1,-221.6 L358.9,-224.9 L358.7,-226.0 L358.0,-226.4 L354.9,-226.5 L353.3,-228.0 L350.9,-227.5 L349.9,-218.3 L348.1,-218.1 L348.6,-221.6 L347.6,-222.2 L345.4,-218.8 L342.3,-221.5 L339.0,-223.2 L339.6,-216.1 L338.0,-214.7 L331.7,-212.5 L331.3,-212.9 L331.7,-213.9 L331.0,-213.9 L330.9,-215.5 L330.2,-216.3 L326.8,-201.4 L320.7,-203.8 L320.8,-199.9 L314.9,-199.9 L313.9,-198.5 L308.6,-196.6 L306.6,-199.0 L302.7,-199.4 L301.5,-201.7 L300.9,-201.2 L302.2,-199.6 L301.5,-199.8 L300.7,-200.9 L298.1,-200.2 L296.3,-201.3 L295.2,-201.1 L292.7,-203.0 L288.2,-202.2 L284.5,-200.8 L283.5,-199.6 L280.7,-199.0 L271.5,-202.4 L266.0,-200.0 L265.3,-202.1 L267.0,-202.6 L277.0,-216.0 L273.4,-219.2 L269.5,-221.1 L267.1,-217.7 L265.0,-218.0 L261.3,-217.5 L260.4,-219.2 L256.3,-220.9 L253.3,-226.9 L250.0,-229.1 L248.9,-228.2 L248.1,-223.2 L249.9,-219.8 L249.8,-219.2 L245.1,-213.6 L243.8,-211.2 L241.7,-209.4 L240.9,-206.8 L239.2,-203.7 L238.3,-202.9 L235.6,-202.7 L232.5,-198.4 L229.4,-198.9 L228.6,-198.5 L229.6,-197.0 L232.0,-195.2 L232.3,-193.0 L231.8,-192.3 L230.2,-192.3 L226.6,-193.6 L225.4,-191.7 L223.4,-190.3 L219.9,-184.5 L218.8,-183.7 L215.5,-183.7 L214.9,-185.0 L214.0,-185.6 L212.0,-185.0 L210.3,-185.4 L207.1,-183.3 L205.7,-180.4 L204.7,-180.3 L203.2,-181.6 L202.8,-185.7 L199.2,-187.3 L197.0,-189.3 L199.1,-187.2 L200.7,-186.8 L202.7,-185.4 L203.1,-182.1 L203.0,-181.7 L201.9,-181.7 L203.1,-179.1 L202.4,-178.4 L204.8,-176.8 L203.8,-176.3 L202.9,-176.6 L201.7,-175.8 L199.8,-172.3 L199.0,-171.9 L195.3,-174.9 L193.3,-179.0 L193.1,-181.4 L191.9,-181.6 L190.5,-180.4 L189.1,-173.6 L186.9,-172.5 L188.2,-169.4 L193.6,-163.9 L194.3,-153.4 L196.9,-156.0 L210.1,-151.2 L213.3,-150.6 L211.0,-148.4 L202.4,-151.7 L197.6,-150.5 L198.6,-147.1 L197.9,-141.0 L200.5,-134.8 L201.0,-131.4 L205.3,-130.6 L199.7,-111.7 L196.4,-113.0 L196.7,-105.7 L195.8,-104.4 L197.3,-103.2 L193.3,-88.9 L193.1,-84.5 L190.6,-84.6 L190.7,-83.6 L190.1,-82.5 L191.2,-82.2 L190.3,-79.1 L190.3,-76.2 L188.9,-72.3 L187.2,-69.8 L187.3,-66.3 L186.6,-65.2 L186.2,-63.6 L188.2,-60.6 L188.1,-60.0 L188.8,-58.5 L188.6,-57.1 L189.5,-54.7 L189.6,-51.9 L189.4,-48.9 L188.4,-46.0 L188.4,-42.9 L189.2,-41.7 L192.3,-39.7 L195.0,-39.8 L195.8,-38.8 L196.6,-37.4 L196.5,-36.0 L197.0,-34.9 L196.6,-31.7 L197.8,-28.5 L200.5,-28.0 L201.4,-27.3 L202.7,-27.7 L204.0,-26.5 L207.2,-25.6 L208.7,-24.6 L209.0,-22.4 L207.7,-21.5 L207.2,-20.1 L208.7,-17.1 L210.2,-15.8 L213.4,-15.7 L215.2,-14.6 L214.6,-10.7 L215.2,-7.3 L216.0,-6.5 L216.6,-4.5 L216.5,-3.3 L215.4,-2.8 L213.7,-3.0 L210.6,-1.7 L206.7,-2.7 L204.6,-2.1 L201.3,2.8 L201.0,5.7 L202.7,6.7 L202.0,7.1 L202.0,8.2 L199.0,7.3 L191.4,7.7 L187.8,8.6 L185.8,10.0 L185.1,13.1 L73.5,114.2 L73.8,121.9 L72.7,125.6 L73.0,127.6 L67.9,135.5 L67.4,137.3 L67.9,138.3 L66.7,141.3 L65.1,142.8 L65.5,143.4 L65.5,145.6 L64.6,146.8 L59.9,147.7 L58.4,148.7 L53.1,150.2 L44.9,150.3 L40.0,154.7 L38.4,154.5 L37.9,153.9 L37.2,154.3 L34.9,157.7 L33.7,157.4 L33.0,157.9 L31.5,156.6 L31.5,155.7 L30.3,155.3 L29.7,154.3 L28.3,154.5 L26.9,157.4 L25.5,158.3 L15.1,154.5 L14.0,154.6 L12.8,155.5 L12.3,156.8 L12.7,160.6 L13.7,164.9 L14.8,167.6 L15.3,171.0 L15.2,173.3 L18.7,178.7 L18.7,179.8 L18.2,180.9 L17.1,181.4 L14.3,180.6 L13.1,185.7 L11.1,187.4 L10.0,189.8Z" fill="#3f6f86" fill-opacity="0.55"/></g><path d="M362.1,295.8 L362.2,295.4 L362.8,295.5 L368.9,297.3 L366.0,293.3 L366.7,291.2 L366.3,288.8 L367.8,288.2 L375.8,289.6 L377.2,288.6 L379.5,290.1 L380.6,291.5 L381.6,296.4 L383.0,298.6 L384.8,300.1 L387.4,299.8 L388.5,298.7 L388.7,296.3 L385.3,294.8 L385.8,293.5 L384.8,291.7 L386.3,289.0 L389.2,287.9 L393.7,289.1 L393.5,287.4 L394.3,285.3 L395.2,284.5 L398.2,285.2 L400.1,286.6 L403.6,287.7 L404.9,286.0 L405.7,282.2 L408.6,275.0 L412.2,273.4 L412.2,276.8 L415.0,280.6 L415.2,281.5 L414.5,284.0 L416.7,286.8 L417.0,287.9 L416.9,289.6 L415.6,291.5 L413.5,293.2 L407.2,296.4 L404.4,301.2 L404.9,300.7 L403.4,305.4 L403.3,323.1 L402.7,326.0 L400.9,328.6 L399.0,330.1 L393.4,330.6 L391.1,332.1 L386.7,331.3 L385.5,331.9 L384.3,334.1 L385.3,333.3 L384.5,334.9 L385.0,335.4 L385.0,334.4 L385.8,332.4 L390.3,333.6 L395.1,331.8 L395.3,333.4 L398.4,333.3 L399.9,332.5 L404.2,328.6 L405.5,326.6 L405.0,316.0 L406.2,310.0 L408.5,303.4 L411.7,299.1 L418.3,294.4 L420.6,291.3 L421.4,288.7 L422.8,279.8 L424.4,274.0 L424.3,269.7 L423.8,268.0 L424.6,261.8 L428.4,258.8 L434.7,257.0 L435.9,257.3 L437.9,259.0 L438.4,257.5 L441.9,260.5 L447.5,263.5 L452.6,263.5 L460.2,260.8 L467.9,259.5 L468.4,261.8 L469.4,262.5 L469.7,262.3 L469.0,261.8 L468.7,259.4 L473.0,258.8 L475.4,256.7 L476.0,255.2 L478.6,259.0 L480.0,257.8 L479.7,254.0 L480.2,253.1 L486.6,251.1 L489.1,251.3 L488.4,245.6 L491.9,232.2 L493.9,228.2 L506.2,213.1 L508.8,207.4 L510.0,203.2 L508.2,193.9 L507.1,191.8 L505.7,190.6 L504.2,193.2 L501.5,193.4 L501.8,194.6 L501.4,195.5 L501.7,194.6 L500.9,193.3 L499.0,193.5 L500.4,192.8 L496.7,193.3 L494.5,194.3 L496.3,195.0 L495.1,195.1 L492.9,196.5 L491.4,199.8 L492.0,211.3 L490.7,215.0 L487.3,218.6 L487.6,219.1 L484.0,220.1 L476.7,220.4 L471.6,218.9 L462.1,213.9 L461.4,214.6 L462.0,213.8 L458.7,209.6 L457.5,206.6 L456.9,199.2 L459.0,197.3 L459.9,195.2 L461.1,193.9 L460.9,193.1 L461.5,192.7 L460.9,192.2 L460.3,192.4 L461.7,192.5 L462.2,191.1 L461.8,190.7 L466.1,183.3 L466.0,183.7 L467.4,180.6 L468.1,176.0 L467.7,170.7 L467.2,170.0 L467.5,170.0 L467.3,168.9 L465.7,167.5 L462.2,166.8 L459.4,168.4 L458.5,170.3 L458.6,172.2 L459.0,172.3 L458.3,172.5 L458.7,173.6 L459.4,174.0 L459.1,175.0 L459.4,175.7 L459.6,175.3 L459.3,176.2 L459.7,176.1 L459.0,178.2 L459.6,178.3 L458.6,179.6 L459.0,180.2 L458.8,179.5 L459.2,179.3 L458.8,179.6 L459.1,180.2 L458.5,180.3 L458.5,179.8 L453.7,189.7 L452.6,191.2 L450.6,192.7 L445.3,194.9 L443.8,195.3 L441.2,194.7 L440.5,195.3 L439.7,194.6 L438.4,194.9 L438.4,194.2 L437.9,194.3 L438.0,194.8 L427.2,194.1 L420.3,196.1 L418.4,197.6 L417.2,196.5 L417.8,195.8 L417.9,194.1 L419.3,193.0 L419.4,192.0 L420.1,191.3 L420.5,189.4 L420.2,187.9 L418.9,187.4 L419.7,186.9 L417.0,183.5 L414.6,181.7 L411.7,180.6 L410.1,181.0 L408.6,182.5 L408.0,184.3 L407.9,188.2 L406.5,189.2 L406.3,190.9 L400.4,188.6 L398.0,186.2 L396.9,186.3 L398.3,185.9 L397.7,185.5 L398.1,184.9 L397.8,184.2 L398.4,181.1 L399.8,177.8 L399.8,176.2 L398.6,174.5 L393.6,171.5 L391.6,169.1 L389.2,169.1 L390.9,168.4 L389.2,168.4 L388.3,167.5 L389.6,167.1 L391.1,167.9 L390.6,165.7 L389.5,165.7 L390.6,165.3 L390.0,159.0 L388.1,151.9 L385.9,149.9 L383.5,149.3 L382.7,150.0 L385.1,150.9 L385.9,152.3 L384.6,154.9 L381.8,152.9 L382.1,152.1 L381.7,150.8 L382.3,149.8 L375.8,151.3 L376.5,152.8 L376.0,153.1 L374.9,151.4 L372.5,151.6 L370.9,151.1 L367.4,148.5 L365.6,146.0 L364.3,142.3 L364.6,142.2 L364.3,140.3 L364.6,138.3 L365.9,135.2 L369.6,128.6 L369.4,128.1 L369.9,128.0 L370.7,125.4 L359.2,115.7 L353.5,112.8 L347.5,113.2 L347.5,112.6 L340.3,108.9 L339.5,110.6 L338.1,111.0 L335.8,110.7 L335.5,109.9 L334.3,109.2 L330.8,110.8 L329.1,113.0 L328.5,112.4 L326.8,112.2 L324.4,114.3 L323.5,111.6 L322.2,112.0 L320.3,114.1 L319.1,114.1 L318.6,115.9 L317.2,117.4 L316.4,117.4 L314.6,116.0 L313.3,113.0 L311.8,113.5 L312.6,111.1 L312.4,110.2 L309.3,108.0 L308.8,108.0 L307.7,109.2 L302.5,105.6 L301.0,104.0 L298.7,100.8 L297.5,98.1 L297.0,95.8 L297.5,94.1 L295.7,92.6 L292.9,84.5 L289.6,73.9 L290.0,71.6 L287.9,69.7 L287.2,67.4 L286.3,60.1 L287.3,57.6 L286.7,57.5 L286.1,55.4 L285.7,41.8 L272.8,45.6 L267.0,32.0 L265.3,30.8 L262.1,34.3 L254.9,38.9 L246.4,41.5 L238.1,40.3 L235.4,40.8 L235.2,40.1 L232.0,39.1 L232.4,37.8 L231.6,36.5 L231.4,34.5 L230.2,33.1 L230.3,31.0 L228.6,28.7 L232.8,28.0 L233.1,18.2 L224.0,18.5 L218.1,17.9 L218.6,17.6 L214.3,16.8 L209.3,17.1 L200.1,14.8 L191.9,14.6 L188.6,13.1 L185.8,10.0 L185.1,13.1 L73.5,114.2 L73.8,121.9 L72.7,125.6 L73.0,127.6 L67.9,135.5 L67.4,137.3 L67.9,138.3 L66.7,141.3 L65.1,142.8 L65.5,143.4 L65.5,145.6 L64.6,146.8 L59.9,147.7 L58.4,148.7 L53.1,150.2 L44.9,150.3 L40.0,154.7 L38.4,154.5 L37.9,153.9 L37.2,154.3 L34.9,157.7 L33.7,157.4 L33.0,157.9 L31.5,156.6 L31.5,155.7 L30.3,155.3 L29.7,154.3 L28.3,154.5 L26.9,157.4 L25.5,158.3 L14.6,154.4 L12.5,156.0 L12.8,161.1 L14.8,167.6 L15.3,171.0 L15.2,173.3 L18.7,178.7 L18.7,179.8 L18.2,180.9 L17.1,181.4 L14.3,180.6 L13.0,186.0 L11.7,186.8 L10.1,189.1 L10.1,190.7 L11.4,195.7 L11.0,198.1 L11.5,203.0 L10.7,206.2 L11.4,208.1 L12.8,209.9 L13.7,210.0 L18.8,209.4 L23.8,210.2 L30.8,216.6 L31.0,218.2 L30.3,223.4 L32.0,227.2 L38.2,230.8 L41.6,233.7 L46.1,234.3 L50.0,233.6 L58.0,234.1 L61.5,235.5 L66.2,235.8 L68.3,237.0 L70.0,236.8 L73.8,238.5 L74.7,240.0 L74.2,241.9 L73.0,243.7 L72.9,244.5 L73.3,245.5 L74.9,246.6 L74.8,248.2 L72.8,249.6 L70.8,253.5 L68.3,253.8 L64.8,256.1 L64.9,259.7 L66.5,267.4 L74.1,272.5 L78.1,272.9 L82.9,274.8 L93.4,284.2 L96.2,287.4 L96.8,290.5 L97.1,296.6 L100.6,301.0 L103.7,302.7 L115.2,304.8 L119.3,303.0 L120.7,301.3 L120.5,297.5 L121.9,294.5 L122.7,287.6 L127.7,285.9 L133.9,288.5 L135.9,287.9 L137.6,286.0 L138.4,284.4 L136.8,280.9 L137.3,276.5 L138.7,273.9 L141.4,272.1 L144.9,272.0 L147.9,273.7 L149.5,275.8 L152.2,284.1 L156.5,290.3 L160.4,289.7 L161.9,288.3 L163.3,285.8 L164.2,280.9 L165.0,279.7 L168.0,279.2 L175.7,279.1 L176.9,280.2 L178.4,284.1 L180.7,294.7 L184.5,299.4 L186.7,304.4 L189.0,306.4 L195.7,307.9 L202.1,302.9 L205.4,301.8 L209.6,304.7 L213.5,304.9 L216.5,301.3 L218.3,300.7 L219.6,301.1 L221.0,302.6 L223.4,303.9 L226.9,307.7 L227.3,308.6 L227.3,312.4 L229.1,317.9 L236.2,322.1 L237.6,325.0 L242.1,325.4 L242.8,326.0 L244.9,328.5 L246.1,333.5 L247.8,334.7 L250.2,335.1 L251.2,334.7 L253.1,331.8 L253.6,331.6 L254.6,332.1 L255.2,333.5 L255.3,339.7 L258.5,340.1 L261.3,346.3 L262.7,346.7 L264.3,345.3 L271.1,344.4 L273.9,345.2 L279.8,345.0 L287.6,348.6 L290.0,353.8 L291.6,354.3 L296.5,353.2 L301.1,350.3 L305.6,349.6 L306.7,349.0 L307.0,348.0 L307.8,347.3 L308.8,347.0 L309.9,347.9 L311.1,348.0 L314.2,346.4 L319.3,346.0 L324.4,346.8 L330.4,345.7 L334.7,346.1 L340.0,347.8 L344.9,348.6 L354.8,347.8 L361.0,346.3 L361.9,344.8 L363.4,343.8 L363.0,343.4 L364.1,342.9 L364.5,341.8 L366.3,341.9 L369.0,340.2 L370.3,340.3 L370.6,339.6 L371.9,338.9 L372.6,339.3 L373.9,338.5 L375.0,330.8 L373.2,324.4 L375.8,310.7 L375.5,308.9 L375.1,307.9 L372.4,305.7 L371.1,307.1 L370.2,306.6 L370.3,307.9 L369.1,307.5 L369.2,308.3 L370.1,308.8 L369.3,309.2 L366.2,302.8 L362.2,297.2 L362.1,295.8Z" fill="none" stroke="#3a342c" stroke-width="1.5" stroke-linejoin="round"/></svg>