<svg xmlns="http://www.w3.org/2000/svg" viewBox="0 0 64 64" width="64" height="64" role="img" aria-label="The Chesterfield Report neon heron mark">
  <defs>
    <filter id="heronGlow" x="-40%" y="-40%" width="180%" height="180%">
      <feGaussianBlur stdDeviation="1.1" result="b"></feGaussianBlur>
      <feMerge>
        <feMergeNode in="b"></feMergeNode>
        <feMergeNode in="SourceGraphic"></feMergeNode>
      </feMerge>
    </filter>
  </defs>

  
  <circle cx="32" cy="32" r="30" fill="#06141a"></circle>
  <circle cx="32" cy="32" r="30" fill="none" stroke="#22f5d4" stroke-width="1" opacity="0.35"></circle>
  <circle cx="32" cy="32" r="25.5" fill="none" stroke="#22f5d4" stroke-width="0.75" stroke-dasharray="2 4" opacity="0.5"></circle>
  
  <g stroke="#ffd23f" stroke-width="1.4" stroke-linecap="round" opacity="0.85">
    <path d="M32 3.5 v3"></path>
    <path d="M32 57 v3.5"></path>
    <path d="M3.5 32 h3"></path>
    <path d="M57 32 h3.5"></path>
  </g>

  <g filter="url(#heronGlow)">
    
    <path d="M12 45 Q22 42 32 45 T52 44" fill="none" stroke="#1f6b53" stroke-width="2" stroke-linecap="round" opacity="0.9"></path>
    <path d="M16 49 h7 M28 49 h6 M40 49 h6" stroke="#22f5d4" stroke-width="1" stroke-linecap="round" opacity="0.45"></path>

    
    <g stroke="#22f5d4" stroke-width="1.8" stroke-linecap="round">
      <path d="M29 39 L26.5 45.5"></path>
      <path d="M33 39 L34.5 45.5"></path>
      <path d="M26.5 45.5 l-2 1.5 M34.5 45.5 l2 1.5"></path>
    </g>

    
    <path d="M22 40&#xA;             C20.5 36 24 33.5 28 33&#xA;             C32 32.5 35 32 36 28.5&#xA;             C37 24.5 35.5 21 37 16.5&#xA;             C37.8 14 39.6 12.4 41.5 11.5" fill="none" stroke="#22f5d4" stroke-width="2.4" stroke-linecap="round" stroke-linejoin="round"></path>
    
    <path d="M24 36.5 C28 35.5 32 35.5 35 33.5" fill="none" stroke="#0fb89e" stroke-width="1.6" stroke-linecap="round" opacity="0.9"></path>
    
    <path d="M41.5 11.5 L52 8 L42 13.5 Z" fill="#ffd23f"></path>
    
    <circle cx="41.4" cy="12.6" r="1.15" fill="#ff2e88"></circle>
  </g>
</svg>